<?xml version="1.0" encoding="UTF-8" standalone="no"?><svg xmlns="http://www.w3.org/2000/svg" xmlns:xlink="http://www.w3.org/1999/xlink" contentScriptType="application/ecmascript" contentStyleType="text/css" height="750px" preserveAspectRatio="none" style="width:1200px;height:750px;background:#FFFFFF;" version="1.1" viewBox="0 0 1200 750" width="1200px" zoomAndPan="magnify"><defs><filter height="300%" id="fskesdb7i0ez6" width="300%" x="-1" y="-1"><feGaussianBlur result="blurOut" stdDeviation="2.0"/><feColorMatrix in="blurOut" result="blurOut2" type="matrix" values="0 0 0 0 0 0 0 0 0 0 0 0 0 0 0 0 0 0 .4 0"/><feOffset dx="4.0" dy="4.0" in="blurOut2" result="blurOut3"/><feBlend in="SourceGraphic" in2="blurOut3" mode="normal"/></filter></defs><g><!--MD5=[f6161885d8a7f4b299d40411559b18d4]
class MRN--><rect codeLine="10" fill="#90EE90" filter="url(#fskesdb7i0ez6)" height="45.9375" id="MRN" style="stroke:#A80036;stroke-width:1.5;" width="104" x="350" y="282"/><ellipse cx="365" cy="300.9688" fill="#ADD1B2" rx="11" ry="11" style="stroke:#A80036;stroke-width:1.0;"/><path d="M367.3438,296.6406 C366.4063,296.2031 365.8125,296.0625 364.9375,296.0625 C362.3125,296.0625 360.3125,298.1406 360.3125,300.8594 L360.3125,301.9844 C360.3125,304.5625 362.4219,306.4531 365.3125,306.4531 C366.5313,306.4531 367.6875,306.1563 368.4375,305.6094 C369.0156,305.2031 369.3438,304.75 369.3438,304.3594 C369.3438,303.9063 368.9531,303.5156 368.4844,303.5156 C368.2656,303.5156 368.0625,303.5938 367.875,303.7813 C367.4219,304.2656 367.4219,304.2656 367.2344,304.3594 C366.8125,304.625 366.125,304.75 365.3594,304.75 C363.3125,304.75 362.0156,303.6563 362.0156,301.9531 L362.0156,300.8594 C362.0156,299.0781 363.2656,297.7656 365,297.7656 C365.5781,297.7656 366.1875,297.9219 366.6563,298.1719 C367.1406,298.4531 367.3125,298.6719 367.4063,299.0781 C367.4688,299.4844 367.5,299.6094 367.6406,299.7344 C367.7813,299.875 368.0156,299.9844 368.2344,299.9844 C368.5,299.9844 368.7656,299.8438 368.9375,299.625 C369.0469,299.4688 369.0781,299.2813 369.0781,298.8594 L369.0781,297.4375 C369.0781,297 369.0625,296.875 368.9688,296.7188 C368.8125,296.4531 368.5313,296.3125 368.2344,296.3125 C367.9375,296.3125 367.7344,296.4063 367.5156,296.7188 L367.3438,296.6406 Z " fill="#000000"/><text fill="#000000" font-family="sans-serif" font-size="12" font-style="italic" lengthAdjust="spacing" textLength="76" x="377" y="298.1387">«Parameter»</text><text fill="#000000" font-family="sans-serif" font-size="12" lengthAdjust="spacing" textLength="25" x="402.5" y="312.1074">MRN</text><line style="stroke:#A80036;stroke-width:1.5;" x1="351" x2="453" y1="319.9375" y2="319.9375"/><!--MD5=[4f347979e1a00d433aec894ae4d0a099]
class Kind--><rect codeLine="11" fill="#90EE90" filter="url(#fskesdb7i0ez6)" height="45.9375" id="Kind" style="stroke:#A80036;stroke-width:1.5;" width="104" x="171" y="388"/><ellipse cx="186" cy="406.9688" fill="#ADD1B2" rx="11" ry="11" style="stroke:#A80036;stroke-width:1.0;"/><path d="M188.3438,402.6406 C187.4063,402.2031 186.8125,402.0625 185.9375,402.0625 C183.3125,402.0625 181.3125,404.1406 181.3125,406.8594 L181.3125,407.9844 C181.3125,410.5625 183.4219,412.4531 186.3125,412.4531 C187.5313,412.4531 188.6875,412.1563 189.4375,411.6094 C190.0156,411.2031 190.3438,410.75 190.3438,410.3594 C190.3438,409.9063 189.9531,409.5156 189.4844,409.5156 C189.2656,409.5156 189.0625,409.5938 188.875,409.7813 C188.4219,410.2656 188.4219,410.2656 188.2344,410.3594 C187.8125,410.625 187.125,410.75 186.3594,410.75 C184.3125,410.75 183.0156,409.6563 183.0156,407.9531 L183.0156,406.8594 C183.0156,405.0781 184.2656,403.7656 186,403.7656 C186.5781,403.7656 187.1875,403.9219 187.6563,404.1719 C188.1406,404.4531 188.3125,404.6719 188.4063,405.0781 C188.4688,405.4844 188.5,405.6094 188.6406,405.7344 C188.7813,405.875 189.0156,405.9844 189.2344,405.9844 C189.5,405.9844 189.7656,405.8438 189.9375,405.625 C190.0469,405.4688 190.0781,405.2813 190.0781,404.8594 L190.0781,403.4375 C190.0781,403 190.0625,402.875 189.9688,402.7188 C189.8125,402.4531 189.5313,402.3125 189.2344,402.3125 C188.9375,402.3125 188.7344,402.4063 188.5156,402.7188 L188.3438,402.6406 Z " fill="#000000"/><text fill="#000000" font-family="sans-serif" font-size="12" font-style="italic" lengthAdjust="spacing" textLength="76" x="198" y="404.1387">«Parameter»</text><text fill="#000000" font-family="sans-serif" font-size="12" lengthAdjust="spacing" textLength="26" x="223" y="418.1074">Kind</text><line style="stroke:#A80036;stroke-width:1.5;" x1="172" x2="274" y1="425.9375" y2="425.9375"/><!--MD5=[2770d511fa22a6a61bb54ccdb4cbf396]
class Amount--><rect codeLine="12" fill="#90EE90" filter="url(#fskesdb7i0ez6)" height="45.9375" id="Amount" style="stroke:#A80036;stroke-width:1.5;" width="104" x="310" y="388"/><ellipse cx="325" cy="406.9688" fill="#ADD1B2" rx="11" ry="11" style="stroke:#A80036;stroke-width:1.0;"/><path d="M327.3438,402.6406 C326.4063,402.2031 325.8125,402.0625 324.9375,402.0625 C322.3125,402.0625 320.3125,404.1406 320.3125,406.8594 L320.3125,407.9844 C320.3125,410.5625 322.4219,412.4531 325.3125,412.4531 C326.5313,412.4531 327.6875,412.1563 328.4375,411.6094 C329.0156,411.2031 329.3438,410.75 329.3438,410.3594 C329.3438,409.9063 328.9531,409.5156 328.4844,409.5156 C328.2656,409.5156 328.0625,409.5938 327.875,409.7813 C327.4219,410.2656 327.4219,410.2656 327.2344,410.3594 C326.8125,410.625 326.125,410.75 325.3594,410.75 C323.3125,410.75 322.0156,409.6563 322.0156,407.9531 L322.0156,406.8594 C322.0156,405.0781 323.2656,403.7656 325,403.7656 C325.5781,403.7656 326.1875,403.9219 326.6563,404.1719 C327.1406,404.4531 327.3125,404.6719 327.4063,405.0781 C327.4688,405.4844 327.5,405.6094 327.6406,405.7344 C327.7813,405.875 328.0156,405.9844 328.2344,405.9844 C328.5,405.9844 328.7656,405.8438 328.9375,405.625 C329.0469,405.4688 329.0781,405.2813 329.0781,404.8594 L329.0781,403.4375 C329.0781,403 329.0625,402.875 328.9688,402.7188 C328.8125,402.4531 328.5313,402.3125 328.2344,402.3125 C327.9375,402.3125 327.7344,402.4063 327.5156,402.7188 L327.3438,402.6406 Z " fill="#000000"/><text fill="#000000" font-family="sans-serif" font-size="12" font-style="italic" lengthAdjust="spacing" textLength="76" x="337" y="404.1387">«Parameter»</text><text fill="#000000" font-family="sans-serif" font-size="12" lengthAdjust="spacing" textLength="45" x="352.5" y="418.1074">Amount</text><line style="stroke:#A80036;stroke-width:1.5;" x1="311" x2="413" y1="425.9375" y2="425.9375"/><!--MD5=[009695af4e54f3bba8a9c60dca3e1c94]
class Description--><rect codeLine="13" fill="#90EE90" filter="url(#fskesdb7i0ez6)" height="45.9375" id="Description" style="stroke:#A80036;stroke-width:1.5;" width="104" x="449" y="388"/><ellipse cx="464" cy="406.9688" fill="#ADD1B2" rx="11" ry="11" style="stroke:#A80036;stroke-width:1.0;"/><path d="M466.3438,402.6406 C465.4063,402.2031 464.8125,402.0625 463.9375,402.0625 C461.3125,402.0625 459.3125,404.1406 459.3125,406.8594 L459.3125,407.9844 C459.3125,410.5625 461.4219,412.4531 464.3125,412.4531 C465.5313,412.4531 466.6875,412.1563 467.4375,411.6094 C468.0156,411.2031 468.3438,410.75 468.3438,410.3594 C468.3438,409.9063 467.9531,409.5156 467.4844,409.5156 C467.2656,409.5156 467.0625,409.5938 466.875,409.7813 C466.4219,410.2656 466.4219,410.2656 466.2344,410.3594 C465.8125,410.625 465.125,410.75 464.3594,410.75 C462.3125,410.75 461.0156,409.6563 461.0156,407.9531 L461.0156,406.8594 C461.0156,405.0781 462.2656,403.7656 464,403.7656 C464.5781,403.7656 465.1875,403.9219 465.6563,404.1719 C466.1406,404.4531 466.3125,404.6719 466.4063,405.0781 C466.4688,405.4844 466.5,405.6094 466.6406,405.7344 C466.7813,405.875 467.0156,405.9844 467.2344,405.9844 C467.5,405.9844 467.7656,405.8438 467.9375,405.625 C468.0469,405.4688 468.0781,405.2813 468.0781,404.8594 L468.0781,403.4375 C468.0781,403 468.0625,402.875 467.9688,402.7188 C467.8125,402.4531 467.5313,402.3125 467.2344,402.3125 C466.9375,402.3125 466.7344,402.4063 466.5156,402.7188 L466.3438,402.6406 Z " fill="#000000"/><text fill="#000000" font-family="sans-serif" font-size="12" font-style="italic" lengthAdjust="spacing" textLength="76" x="476" y="404.1387">«Parameter»</text><text fill="#000000" font-family="sans-serif" font-size="12" lengthAdjust="spacing" textLength="69" x="479.5" y="418.1074">Description</text><line style="stroke:#A80036;stroke-width:1.5;" x1="450" x2="552" y1="425.9375" y2="425.9375"/><!--MD5=[ff99f2d4705bb60abdb691286c780ac4]
class Dangerous--><rect codeLine="15" fill="#90EE90" filter="url(#fskesdb7i0ez6)" height="45.9375" id="Dangerous" style="stroke:#A80036;stroke-width:1.5;" width="104" x="32" y="388"/><ellipse cx="47" cy="406.9688" fill="#ADD1B2" rx="11" ry="11" style="stroke:#A80036;stroke-width:1.0;"/><path d="M49.3438,402.6406 C48.4063,402.2031 47.8125,402.0625 46.9375,402.0625 C44.3125,402.0625 42.3125,404.1406 42.3125,406.8594 L42.3125,407.9844 C42.3125,410.5625 44.4219,412.4531 47.3125,412.4531 C48.5313,412.4531 49.6875,412.1563 50.4375,411.6094 C51.0156,411.2031 51.3438,410.75 51.3438,410.3594 C51.3438,409.9063 50.9531,409.5156 50.4844,409.5156 C50.2656,409.5156 50.0625,409.5938 49.875,409.7813 C49.4219,410.2656 49.4219,410.2656 49.2344,410.3594 C48.8125,410.625 48.125,410.75 47.3594,410.75 C45.3125,410.75 44.0156,409.6563 44.0156,407.9531 L44.0156,406.8594 C44.0156,405.0781 45.2656,403.7656 47,403.7656 C47.5781,403.7656 48.1875,403.9219 48.6563,404.1719 C49.1406,404.4531 49.3125,404.6719 49.4063,405.0781 C49.4688,405.4844 49.5,405.6094 49.6406,405.7344 C49.7813,405.875 50.0156,405.9844 50.2344,405.9844 C50.5,405.9844 50.7656,405.8438 50.9375,405.625 C51.0469,405.4688 51.0781,405.2813 51.0781,404.8594 L51.0781,403.4375 C51.0781,403 51.0625,402.875 50.9688,402.7188 C50.8125,402.4531 50.5313,402.3125 50.2344,402.3125 C49.9375,402.3125 49.7344,402.4063 49.5156,402.7188 L49.3438,402.6406 Z " fill="#000000"/><text fill="#000000" font-family="sans-serif" font-size="12" font-style="italic" lengthAdjust="spacing" textLength="76" x="59" y="404.1387">«Parameter»</text><text fill="#000000" font-family="sans-serif" font-size="12" lengthAdjust="spacing" textLength="66" x="64" y="418.1074">Dangerous</text><line style="stroke:#A80036;stroke-width:1.5;" x1="33" x2="135" y1="425.9375" y2="425.9375"/><!--MD5=[e217be406484b8207c4fd01b57b5c115]
class CT_Dangerous--><rect codeLine="95" fill="#ADD8E6" filter="url(#fskesdb7i0ez6)" height="37.9375" id="CT_Dangerous" style="stroke:#A80036;stroke-width:1.5;" width="154" x="7" y="533.5"/><ellipse cx="22" cy="552.4688" fill="#ADD1B2" rx="11" ry="11" style="stroke:#A80036;stroke-width:1.0;"/><path d="M24.3438,548.1406 C23.4063,547.7031 22.8125,547.5625 21.9375,547.5625 C19.3125,547.5625 17.3125,549.6406 17.3125,552.3594 L17.3125,553.4844 C17.3125,556.0625 19.4219,557.9531 22.3125,557.9531 C23.5313,557.9531 24.6875,557.6563 25.4375,557.1094 C26.0156,556.7031 26.3438,556.25 26.3438,555.8594 C26.3438,555.4063 25.9531,555.0156 25.4844,555.0156 C25.2656,555.0156 25.0625,555.0938 24.875,555.2813 C24.4219,555.7656 24.4219,555.7656 24.2344,555.8594 C23.8125,556.125 23.125,556.25 22.3594,556.25 C20.3125,556.25 19.0156,555.1563 19.0156,553.4531 L19.0156,552.3594 C19.0156,550.5781 20.2656,549.2656 22,549.2656 C22.5781,549.2656 23.1875,549.4219 23.6563,549.6719 C24.1406,549.9531 24.3125,550.1719 24.4063,550.5781 C24.4688,550.9844 24.5,551.1094 24.6406,551.2344 C24.7813,551.375 25.0156,551.4844 25.2344,551.4844 C25.5,551.4844 25.7656,551.3438 25.9375,551.125 C26.0469,550.9688 26.0781,550.7813 26.0781,550.3594 L26.0781,548.9375 C26.0781,548.5 26.0625,548.375 25.9688,548.2188 C25.8125,547.9531 25.5313,547.8125 25.2344,547.8125 C24.9375,547.8125 24.7344,547.9063 24.5156,548.2188 L24.3438,548.1406 Z " fill="#000000"/><text fill="#000000" font-family="sans-serif" font-size="12" font-style="italic" lengthAdjust="spacing" textLength="126" x="34" y="549.6387">«CharacteristicType»</text><text fill="#000000" font-family="sans-serif" font-size="12" lengthAdjust="spacing" textLength="87" x="53.5" y="563.6074">CT_Dangerous</text><!--MD5=[18a836c23c0e4d04592ec32f5657da5f]
class Destination--><rect codeLine="18" fill="#90EE90" filter="url(#fskesdb7i0ez6)" height="45.9375" id="Destination" style="stroke:#A80036;stroke-width:1.5;" width="104" x="891" y="282"/><ellipse cx="906" cy="300.9688" fill="#ADD1B2" rx="11" ry="11" style="stroke:#A80036;stroke-width:1.0;"/><path d="M908.3438,296.6406 C907.4063,296.2031 906.8125,296.0625 905.9375,296.0625 C903.3125,296.0625 901.3125,298.1406 901.3125,300.8594 L901.3125,301.9844 C901.3125,304.5625 903.4219,306.4531 906.3125,306.4531 C907.5313,306.4531 908.6875,306.1563 909.4375,305.6094 C910.0156,305.2031 910.3438,304.75 910.3438,304.3594 C910.3438,303.9063 909.9531,303.5156 909.4844,303.5156 C909.2656,303.5156 909.0625,303.5938 908.875,303.7813 C908.4219,304.2656 908.4219,304.2656 908.2344,304.3594 C907.8125,304.625 907.125,304.75 906.3594,304.75 C904.3125,304.75 903.0156,303.6563 903.0156,301.9531 L903.0156,300.8594 C903.0156,299.0781 904.2656,297.7656 906,297.7656 C906.5781,297.7656 907.1875,297.9219 907.6563,298.1719 C908.1406,298.4531 908.3125,298.6719 908.4063,299.0781 C908.4688,299.4844 908.5,299.6094 908.6406,299.7344 C908.7813,299.875 909.0156,299.9844 909.2344,299.9844 C909.5,299.9844 909.7656,299.8438 909.9375,299.625 C910.0469,299.4688 910.0781,299.2813 910.0781,298.8594 L910.0781,297.4375 C910.0781,297 910.0625,296.875 909.9688,296.7188 C909.8125,296.4531 909.5313,296.3125 909.2344,296.3125 C908.9375,296.3125 908.7344,296.4063 908.5156,296.7188 L908.3438,296.6406 Z " fill="#000000"/><text fill="#000000" font-family="sans-serif" font-size="12" font-style="italic" lengthAdjust="spacing" textLength="76" x="918" y="298.1387">«Parameter»</text><text fill="#000000" font-family="sans-serif" font-size="12" lengthAdjust="spacing" textLength="67" x="922.5" y="312.1074">Destination</text><line style="stroke:#A80036;stroke-width:1.5;" x1="892" x2="994" y1="319.9375" y2="319.9375"/><!--MD5=[2e550f34073aba19eee4acb440bcb225]
class CT_State--><rect codeLine="99" fill="#ADD8E6" filter="url(#fskesdb7i0ez6)" height="37.9375" id="CT_State" style="stroke:#A80036;stroke-width:1.5;" width="154" x="632" y="392"/><ellipse cx="647" cy="410.9688" fill="#ADD1B2" rx="11" ry="11" style="stroke:#A80036;stroke-width:1.0;"/><path d="M649.3438,406.6406 C648.4063,406.2031 647.8125,406.0625 646.9375,406.0625 C644.3125,406.0625 642.3125,408.1406 642.3125,410.8594 L642.3125,411.9844 C642.3125,414.5625 644.4219,416.4531 647.3125,416.4531 C648.5313,416.4531 649.6875,416.1563 650.4375,415.6094 C651.0156,415.2031 651.3438,414.75 651.3438,414.3594 C651.3438,413.9063 650.9531,413.5156 650.4844,413.5156 C650.2656,413.5156 650.0625,413.5938 649.875,413.7813 C649.4219,414.2656 649.4219,414.2656 649.2344,414.3594 C648.8125,414.625 648.125,414.75 647.3594,414.75 C645.3125,414.75 644.0156,413.6563 644.0156,411.9531 L644.0156,410.8594 C644.0156,409.0781 645.2656,407.7656 647,407.7656 C647.5781,407.7656 648.1875,407.9219 648.6563,408.1719 C649.1406,408.4531 649.3125,408.6719 649.4063,409.0781 C649.4688,409.4844 649.5,409.6094 649.6406,409.7344 C649.7813,409.875 650.0156,409.9844 650.2344,409.9844 C650.5,409.9844 650.7656,409.8438 650.9375,409.625 C651.0469,409.4688 651.0781,409.2813 651.0781,408.8594 L651.0781,407.4375 C651.0781,407 651.0625,406.875 650.9688,406.7188 C650.8125,406.4531 650.5313,406.3125 650.2344,406.3125 C649.9375,406.3125 649.7344,406.4063 649.5156,406.7188 L649.3438,406.6406 Z " fill="#000000"/><text fill="#000000" font-family="sans-serif" font-size="12" font-style="italic" lengthAdjust="spacing" textLength="126" x="659" y="408.1387">«CharacteristicType»</text><text fill="#000000" font-family="sans-serif" font-size="12" lengthAdjust="spacing" textLength="52" x="696" y="422.1074">CT_State</text><!--MD5=[c123d0126054bcf002e95f5c8b17b418]
class CT_Destination--><rect codeLine="107" fill="#ADD8E6" filter="url(#fskesdb7i0ez6)" height="37.9375" id="CT_Destination" style="stroke:#A80036;stroke-width:1.5;" width="154" x="843" y="392"/><ellipse cx="858" cy="410.9688" fill="#ADD1B2" rx="11" ry="11" style="stroke:#A80036;stroke-width:1.0;"/><path d="M860.3438,406.6406 C859.4063,406.2031 858.8125,406.0625 857.9375,406.0625 C855.3125,406.0625 853.3125,408.1406 853.3125,410.8594 L853.3125,411.9844 C853.3125,414.5625 855.4219,416.4531 858.3125,416.4531 C859.5313,416.4531 860.6875,416.1563 861.4375,415.6094 C862.0156,415.2031 862.3438,414.75 862.3438,414.3594 C862.3438,413.9063 861.9531,413.5156 861.4844,413.5156 C861.2656,413.5156 861.0625,413.5938 860.875,413.7813 C860.4219,414.2656 860.4219,414.2656 860.2344,414.3594 C859.8125,414.625 859.125,414.75 858.3594,414.75 C856.3125,414.75 855.0156,413.6563 855.0156,411.9531 L855.0156,410.8594 C855.0156,409.0781 856.2656,407.7656 858,407.7656 C858.5781,407.7656 859.1875,407.9219 859.6563,408.1719 C860.1406,408.4531 860.3125,408.6719 860.4063,409.0781 C860.4688,409.4844 860.5,409.6094 860.6406,409.7344 C860.7813,409.875 861.0156,409.9844 861.2344,409.9844 C861.5,409.9844 861.7656,409.8438 861.9375,409.625 C862.0469,409.4688 862.0781,409.2813 862.0781,408.8594 L862.0781,407.4375 C862.0781,407 862.0625,406.875 861.9688,406.7188 C861.8125,406.4531 861.5313,406.3125 861.2344,406.3125 C860.9375,406.3125 860.7344,406.4063 860.5156,406.7188 L860.3438,406.6406 Z " fill="#000000"/><text fill="#000000" font-family="sans-serif" font-size="12" font-style="italic" lengthAdjust="spacing" textLength="126" x="870" y="408.1387">«CharacteristicType»</text><text fill="#000000" font-family="sans-serif" font-size="12" lengthAdjust="spacing" textLength="88" x="889" y="422.1074">CT_Destination</text><!--MD5=[ab351c33ea7f392f143714722d89db95]
class CT_Origin--><rect codeLine="103" fill="#ADD8E6" filter="url(#fskesdb7i0ez6)" height="37.9375" id="CT_Origin" style="stroke:#A80036;stroke-width:1.5;" width="154" x="1032" y="392"/><ellipse cx="1047" cy="410.9688" fill="#ADD1B2" rx="11" ry="11" style="stroke:#A80036;stroke-width:1.0;"/><path d="M1049.3438,406.6406 C1048.4063,406.2031 1047.8125,406.0625 1046.9375,406.0625 C1044.3125,406.0625 1042.3125,408.1406 1042.3125,410.8594 L1042.3125,411.9844 C1042.3125,414.5625 1044.4219,416.4531 1047.3125,416.4531 C1048.5313,416.4531 1049.6875,416.1563 1050.4375,415.6094 C1051.0156,415.2031 1051.3438,414.75 1051.3438,414.3594 C1051.3438,413.9063 1050.9531,413.5156 1050.4844,413.5156 C1050.2656,413.5156 1050.0625,413.5938 1049.875,413.7813 C1049.4219,414.2656 1049.4219,414.2656 1049.2344,414.3594 C1048.8125,414.625 1048.125,414.75 1047.3594,414.75 C1045.3125,414.75 1044.0156,413.6563 1044.0156,411.9531 L1044.0156,410.8594 C1044.0156,409.0781 1045.2656,407.7656 1047,407.7656 C1047.5781,407.7656 1048.1875,407.9219 1048.6563,408.1719 C1049.1406,408.4531 1049.3125,408.6719 1049.4063,409.0781 C1049.4688,409.4844 1049.5,409.6094 1049.6406,409.7344 C1049.7813,409.875 1050.0156,409.9844 1050.2344,409.9844 C1050.5,409.9844 1050.7656,409.8438 1050.9375,409.625 C1051.0469,409.4688 1051.0781,409.2813 1051.0781,408.8594 L1051.0781,407.4375 C1051.0781,407 1051.0625,406.875 1050.9688,406.7188 C1050.8125,406.4531 1050.5313,406.3125 1050.2344,406.3125 C1049.9375,406.3125 1049.7344,406.4063 1049.5156,406.7188 L1049.3438,406.6406 Z " fill="#000000"/><text fill="#000000" font-family="sans-serif" font-size="12" font-style="italic" lengthAdjust="spacing" textLength="126" x="1059" y="408.1387">«CharacteristicType»</text><text fill="#000000" font-family="sans-serif" font-size="12" lengthAdjust="spacing" textLength="57" x="1093.5" y="422.1074">CT_Origin</text><!--MD5=[9dc6390cd0e10b69f45f026bac0bcbb6]
class VGM--><rect codeLine="23" fill="#90EE90" filter="url(#fskesdb7i0ez6)" height="45.9375" id="VGM" style="stroke:#A80036;stroke-width:1.5;" width="104" x="569" y="282"/><ellipse cx="584" cy="300.9688" fill="#ADD1B2" rx="11" ry="11" style="stroke:#A80036;stroke-width:1.0;"/><path d="M586.3438,296.6406 C585.4063,296.2031 584.8125,296.0625 583.9375,296.0625 C581.3125,296.0625 579.3125,298.1406 579.3125,300.8594 L579.3125,301.9844 C579.3125,304.5625 581.4219,306.4531 584.3125,306.4531 C585.5313,306.4531 586.6875,306.1563 587.4375,305.6094 C588.0156,305.2031 588.3438,304.75 588.3438,304.3594 C588.3438,303.9063 587.9531,303.5156 587.4844,303.5156 C587.2656,303.5156 587.0625,303.5938 586.875,303.7813 C586.4219,304.2656 586.4219,304.2656 586.2344,304.3594 C585.8125,304.625 585.125,304.75 584.3594,304.75 C582.3125,304.75 581.0156,303.6563 581.0156,301.9531 L581.0156,300.8594 C581.0156,299.0781 582.2656,297.7656 584,297.7656 C584.5781,297.7656 585.1875,297.9219 585.6563,298.1719 C586.1406,298.4531 586.3125,298.6719 586.4063,299.0781 C586.4688,299.4844 586.5,299.6094 586.6406,299.7344 C586.7813,299.875 587.0156,299.9844 587.2344,299.9844 C587.5,299.9844 587.7656,299.8438 587.9375,299.625 C588.0469,299.4688 588.0781,299.2813 588.0781,298.8594 L588.0781,297.4375 C588.0781,297 588.0625,296.875 587.9688,296.7188 C587.8125,296.4531 587.5313,296.3125 587.2344,296.3125 C586.9375,296.3125 586.7344,296.4063 586.5156,296.7188 L586.3438,296.6406 Z " fill="#000000"/><text fill="#000000" font-family="sans-serif" font-size="12" font-style="italic" lengthAdjust="spacing" textLength="76" x="596" y="298.1387">«Parameter»</text><text fill="#000000" font-family="sans-serif" font-size="12" lengthAdjust="spacing" textLength="27" x="620.5" y="312.1074">VGM</text><line style="stroke:#A80036;stroke-width:1.5;" x1="570" x2="672" y1="319.9375" y2="319.9375"/><!--MD5=[5b606b1c48f005e54cb53c5408341fa0]
class ContainerAttributes--><rect codeLine="26" fill="#90EE90" filter="url(#fskesdb7i0ez6)" height="45.9375" id="ContainerAttributes" style="stroke:#A80036;stroke-width:1.5;" width="147" x="708.5" y="282"/><ellipse cx="723.5" cy="300.9688" fill="#ADD1B2" rx="11" ry="11" style="stroke:#A80036;stroke-width:1.0;"/><path d="M725.8438,296.6406 C724.9063,296.2031 724.3125,296.0625 723.4375,296.0625 C720.8125,296.0625 718.8125,298.1406 718.8125,300.8594 L718.8125,301.9844 C718.8125,304.5625 720.9219,306.4531 723.8125,306.4531 C725.0313,306.4531 726.1875,306.1563 726.9375,305.6094 C727.5156,305.2031 727.8438,304.75 727.8438,304.3594 C727.8438,303.9063 727.4531,303.5156 726.9844,303.5156 C726.7656,303.5156 726.5625,303.5938 726.375,303.7813 C725.9219,304.2656 725.9219,304.2656 725.7344,304.3594 C725.3125,304.625 724.625,304.75 723.8594,304.75 C721.8125,304.75 720.5156,303.6563 720.5156,301.9531 L720.5156,300.8594 C720.5156,299.0781 721.7656,297.7656 723.5,297.7656 C724.0781,297.7656 724.6875,297.9219 725.1563,298.1719 C725.6406,298.4531 725.8125,298.6719 725.9063,299.0781 C725.9688,299.4844 726,299.6094 726.1406,299.7344 C726.2813,299.875 726.5156,299.9844 726.7344,299.9844 C727,299.9844 727.2656,299.8438 727.4375,299.625 C727.5469,299.4688 727.5781,299.2813 727.5781,298.8594 L727.5781,297.4375 C727.5781,297 727.5625,296.875 727.4688,296.7188 C727.3125,296.4531 727.0313,296.3125 726.7344,296.3125 C726.4375,296.3125 726.2344,296.4063 726.0156,296.7188 L725.8438,296.6406 Z " fill="#000000"/><text fill="#000000" font-family="sans-serif" font-size="12" font-style="italic" lengthAdjust="spacing" textLength="76" x="757" y="298.1387">«Parameter»</text><text fill="#000000" font-family="sans-serif" font-size="12" lengthAdjust="spacing" textLength="115" x="737.5" y="312.1074">ContainerAttributes</text><line style="stroke:#A80036;stroke-width:1.5;" x1="709.5" x2="854.5" y1="319.9375" y2="319.9375"/><!--MD5=[3d550f3818f96c125fe45ca5e737b759]
class OrderNumber--><rect codeLine="29" fill="#D3D3D3" filter="url(#fskesdb7i0ez6)" height="45.9375" id="OrderNumber" style="stroke:#A80036;stroke-width:1.5;" width="115" x="477.5" y="140.5"/><ellipse cx="492.5" cy="159.4688" fill="#ADD1B2" rx="11" ry="11" style="stroke:#A80036;stroke-width:1.0;"/><path d="M494.8438,155.1406 C493.9063,154.7031 493.3125,154.5625 492.4375,154.5625 C489.8125,154.5625 487.8125,156.6406 487.8125,159.3594 L487.8125,160.4844 C487.8125,163.0625 489.9219,164.9531 492.8125,164.9531 C494.0313,164.9531 495.1875,164.6563 495.9375,164.1094 C496.5156,163.7031 496.8438,163.25 496.8438,162.8594 C496.8438,162.4063 496.4531,162.0156 495.9844,162.0156 C495.7656,162.0156 495.5625,162.0938 495.375,162.2813 C494.9219,162.7656 494.9219,162.7656 494.7344,162.8594 C494.3125,163.125 493.625,163.25 492.8594,163.25 C490.8125,163.25 489.5156,162.1563 489.5156,160.4531 L489.5156,159.3594 C489.5156,157.5781 490.7656,156.2656 492.5,156.2656 C493.0781,156.2656 493.6875,156.4219 494.1563,156.6719 C494.6406,156.9531 494.8125,157.1719 494.9063,157.5781 C494.9688,157.9844 495,158.1094 495.1406,158.2344 C495.2813,158.375 495.5156,158.4844 495.7344,158.4844 C496,158.4844 496.2656,158.3438 496.4375,158.125 C496.5469,157.9688 496.5781,157.7813 496.5781,157.3594 L496.5781,155.9375 C496.5781,155.5 496.5625,155.375 496.4688,155.2188 C496.3125,154.9531 496.0313,154.8125 495.7344,154.8125 C495.4375,154.8125 495.2344,154.9063 495.0156,155.2188 L494.8438,155.1406 Z " fill="#000000"/><text fill="#000000" font-family="sans-serif" font-size="12" font-style="italic" lengthAdjust="spacing" textLength="84" x="506" y="156.6387">«ReturnType»</text><text fill="#000000" font-family="sans-serif" font-size="12" lengthAdjust="spacing" textLength="83" x="506.5" y="170.6074">OrderNumber</text><line style="stroke:#A80036;stroke-width:1.5;" x1="478.5" x2="591.5" y1="178.4375" y2="178.4375"/><!--MD5=[cf4d6237fcae255cd2e1656cf84a30e2]
class Order--><rect codeLine="33" fill="#F5DEB3" filter="url(#fskesdb7i0ez6)" height="37.9375" id="Order" style="stroke:#A80036;stroke-width:1.5;" width="96" x="487" y="7"/><ellipse cx="502" cy="25.9688" fill="#A9DCDF" rx="11" ry="11" style="stroke:#A80036;stroke-width:1.0;"/><path d="M504.0781,27.7813 L504.4688,28.7656 L504.0781,28.7656 C503.625,28.7656 503.5156,28.7813 503.3594,28.8906 C503.1094,29.0469 502.9531,29.3281 502.9531,29.625 C502.9531,29.8906 503.0938,30.1406 503.3125,30.2969 C503.4531,30.4219 503.6563,30.4688 504.0781,30.4688 L506.4375,30.4688 C506.7969,30.4688 507.0156,30.4375 507.1563,30.3438 C507.4063,30.2031 507.5625,29.9063 507.5625,29.625 C507.5625,29.3438 507.4219,29.0938 507.2031,28.9375 C507.0313,28.7969 506.875,28.7656 506.4063,28.7656 L503.0156,20.5625 L499.3438,20.5625 C498.8906,20.5625 498.7656,20.5781 498.6094,20.6719 C498.3594,20.8438 498.2031,21.125 498.2031,21.4063 C498.2031,21.6875 498.3438,21.9375 498.5625,22.1094 C498.7344,22.2188 498.9063,22.25 499.3438,22.25 L500.4219,22.25 L497.7813,28.7656 C497.3594,28.7656 497.2031,28.7813 497.0469,28.8906 C496.7969,29.0469 496.6406,29.3281 496.6406,29.625 C496.6406,30.1875 497.0156,30.4688 497.7656,30.4688 L500.0313,30.4688 C500.3906,30.4688 500.6094,30.4375 500.7344,30.3438 C501,30.2031 501.1406,29.9063 501.1406,29.625 C501.1406,29.3438 501.0156,29.0938 500.7969,28.9219 C500.625,28.7969 500.4844,28.7656 500.0313,28.7656 L499.6406,28.7656 L500.0313,27.7813 L504.0781,27.7813 Z M503.375,26.0781 L500.7031,26.0781 L502.0469,22.8125 L503.375,26.0781 Z " fill="#000000"/><text fill="#000000" font-family="sans-serif" font-size="12" font-style="italic" lengthAdjust="spacing" textLength="68" x="514" y="23.1387">«RealType»</text><text fill="#000000" font-family="sans-serif" font-size="12" font-style="italic" lengthAdjust="spacing" textLength="34" x="531" y="37.1074">Order</text><!--MD5=[d80409f3576551ed6a455469f0519e41]
class Declaration--><rect codeLine="38" fill="#F5DEB3" filter="url(#fskesdb7i0ez6)" height="37.9375" id="Declaration" style="stroke:#A80036;stroke-width:1.5;" width="100" x="342" y="144.5"/><ellipse cx="357" cy="163.4688" fill="#A9DCDF" rx="11" ry="11" style="stroke:#A80036;stroke-width:1.0;"/><path d="M359.0781,165.2813 L359.4688,166.2656 L359.0781,166.2656 C358.625,166.2656 358.5156,166.2813 358.3594,166.3906 C358.1094,166.5469 357.9531,166.8281 357.9531,167.125 C357.9531,167.3906 358.0938,167.6406 358.3125,167.7969 C358.4531,167.9219 358.6563,167.9688 359.0781,167.9688 L361.4375,167.9688 C361.7969,167.9688 362.0156,167.9375 362.1563,167.8438 C362.4063,167.7031 362.5625,167.4063 362.5625,167.125 C362.5625,166.8438 362.4219,166.5938 362.2031,166.4375 C362.0313,166.2969 361.875,166.2656 361.4063,166.2656 L358.0156,158.0625 L354.3438,158.0625 C353.8906,158.0625 353.7656,158.0781 353.6094,158.1719 C353.3594,158.3438 353.2031,158.625 353.2031,158.9063 C353.2031,159.1875 353.3438,159.4375 353.5625,159.6094 C353.7344,159.7188 353.9063,159.75 354.3438,159.75 L355.4219,159.75 L352.7813,166.2656 C352.3594,166.2656 352.2031,166.2813 352.0469,166.3906 C351.7969,166.5469 351.6406,166.8281 351.6406,167.125 C351.6406,167.6875 352.0156,167.9688 352.7656,167.9688 L355.0313,167.9688 C355.3906,167.9688 355.6094,167.9375 355.7344,167.8438 C356,167.7031 356.1406,167.4063 356.1406,167.125 C356.1406,166.8438 356.0156,166.5938 355.7969,166.4219 C355.625,166.2969 355.4844,166.2656 355.0313,166.2656 L354.6406,166.2656 L355.0313,165.2813 L359.0781,165.2813 Z M358.375,163.5781 L355.7031,163.5781 L357.0469,160.3125 L358.375,163.5781 Z " fill="#000000"/><text fill="#000000" font-family="sans-serif" font-size="12" font-style="italic" lengthAdjust="spacing" textLength="68" x="371" y="160.6387">«RealType»</text><text fill="#000000" font-family="sans-serif" font-size="12" font-style="italic" lengthAdjust="spacing" textLength="68" x="371" y="174.6074">Declaration</text><!--MD5=[e9a58730c562b34349daa605d1ed6662]
class Container--><rect codeLine="50" fill="#F5DEB3" filter="url(#fskesdb7i0ez6)" height="37.9375" id="Container" style="stroke:#A80036;stroke-width:1.5;" width="96" x="690" y="144.5"/><ellipse cx="705" cy="163.4688" fill="#A9DCDF" rx="11" ry="11" style="stroke:#A80036;stroke-width:1.0;"/><path d="M707.0781,165.2813 L707.4688,166.2656 L707.0781,166.2656 C706.625,166.2656 706.5156,166.2813 706.3594,166.3906 C706.1094,166.5469 705.9531,166.8281 705.9531,167.125 C705.9531,167.3906 706.0938,167.6406 706.3125,167.7969 C706.4531,167.9219 706.6563,167.9688 707.0781,167.9688 L709.4375,167.9688 C709.7969,167.9688 710.0156,167.9375 710.1563,167.8438 C710.4063,167.7031 710.5625,167.4063 710.5625,167.125 C710.5625,166.8438 710.4219,166.5938 710.2031,166.4375 C710.0313,166.2969 709.875,166.2656 709.4063,166.2656 L706.0156,158.0625 L702.3438,158.0625 C701.8906,158.0625 701.7656,158.0781 701.6094,158.1719 C701.3594,158.3438 701.2031,158.625 701.2031,158.9063 C701.2031,159.1875 701.3438,159.4375 701.5625,159.6094 C701.7344,159.7188 701.9063,159.75 702.3438,159.75 L703.4219,159.75 L700.7813,166.2656 C700.3594,166.2656 700.2031,166.2813 700.0469,166.3906 C699.7969,166.5469 699.6406,166.8281 699.6406,167.125 C699.6406,167.6875 700.0156,167.9688 700.7656,167.9688 L703.0313,167.9688 C703.3906,167.9688 703.6094,167.9375 703.7344,167.8438 C704,167.7031 704.1406,167.4063 704.1406,167.125 C704.1406,166.8438 704.0156,166.5938 703.7969,166.4219 C703.625,166.2969 703.4844,166.2656 703.0313,166.2656 L702.6406,166.2656 L703.0313,165.2813 L707.0781,165.2813 Z M706.375,163.5781 L703.7031,163.5781 L705.0469,160.3125 L706.375,163.5781 Z " fill="#000000"/><text fill="#000000" font-family="sans-serif" font-size="12" font-style="italic" lengthAdjust="spacing" textLength="68" x="717" y="160.6387">«RealType»</text><text fill="#000000" font-family="sans-serif" font-size="12" font-style="italic" lengthAdjust="spacing" textLength="58" x="722" y="174.6074">Container</text><!--MD5=[44a1b4afaef76c16e6c9ec4990ad0c8d]
class Item--><rect codeLine="43" fill="#F5DEB3" filter="url(#fskesdb7i0ez6)" height="37.9375" id="Item" style="stroke:#A80036;stroke-width:1.5;" width="96" x="219" y="286"/><ellipse cx="234" cy="304.9688" fill="#A9DCDF" rx="11" ry="11" style="stroke:#A80036;stroke-width:1.0;"/><path d="M236.0781,306.7813 L236.4688,307.7656 L236.0781,307.7656 C235.625,307.7656 235.5156,307.7813 235.3594,307.8906 C235.1094,308.0469 234.9531,308.3281 234.9531,308.625 C234.9531,308.8906 235.0938,309.1406 235.3125,309.2969 C235.4531,309.4219 235.6563,309.4688 236.0781,309.4688 L238.4375,309.4688 C238.7969,309.4688 239.0156,309.4375 239.1563,309.3438 C239.4063,309.2031 239.5625,308.9063 239.5625,308.625 C239.5625,308.3438 239.4219,308.0938 239.2031,307.9375 C239.0313,307.7969 238.875,307.7656 238.4063,307.7656 L235.0156,299.5625 L231.3438,299.5625 C230.8906,299.5625 230.7656,299.5781 230.6094,299.6719 C230.3594,299.8438 230.2031,300.125 230.2031,300.4063 C230.2031,300.6875 230.3438,300.9375 230.5625,301.1094 C230.7344,301.2188 230.9063,301.25 231.3438,301.25 L232.4219,301.25 L229.7813,307.7656 C229.3594,307.7656 229.2031,307.7813 229.0469,307.8906 C228.7969,308.0469 228.6406,308.3281 228.6406,308.625 C228.6406,309.1875 229.0156,309.4688 229.7656,309.4688 L232.0313,309.4688 C232.3906,309.4688 232.6094,309.4375 232.7344,309.3438 C233,309.2031 233.1406,308.9063 233.1406,308.625 C233.1406,308.3438 233.0156,308.0938 232.7969,307.9219 C232.625,307.7969 232.4844,307.7656 232.0313,307.7656 L231.6406,307.7656 L232.0313,306.7813 L236.0781,306.7813 Z M235.375,305.0781 L232.7031,305.0781 L234.0469,301.8125 L235.375,305.0781 Z " fill="#000000"/><text fill="#000000" font-family="sans-serif" font-size="12" font-style="italic" lengthAdjust="spacing" textLength="68" x="246" y="302.1387">«RealType»</text><text fill="#000000" font-family="sans-serif" font-size="12" font-style="italic" lengthAdjust="spacing" textLength="28" x="266" y="316.1074">Item</text><!--MD5=[e930ca4b6a311929f5525960dd5e2d77]
class Continents--><rect codeLine="56" fill="#FEFECE" filter="url(#fskesdb7i0ez6)" height="104.0234" id="Continents" style="stroke:#A80036;stroke-width:1.5;" width="95" x="966.5" y="500.5"/><ellipse cx="981.5" cy="516.5" fill="#EB937F" rx="11" ry="11" style="stroke:#A80036;stroke-width:1.0;"/><path d="M980.2969,517.375 L981.75,517.375 L981.75,517.4844 C981.75,517.8906 981.7813,518.0469 981.8594,518.2031 C982.0156,518.4531 982.2969,518.6094 982.5938,518.6094 C982.8438,518.6094 983.1094,518.4688 983.2656,518.25 C983.3906,518.0938 983.4219,517.9375 983.4219,517.4844 L983.4219,515.5625 C983.4219,515.4063 983.4219,515.3594 983.4063,515.2031 C983.3438,514.7344 983.0313,514.4219 982.5781,514.4219 C982.3281,514.4219 982.0625,514.5625 981.8906,514.7813 C981.7813,514.9531 981.75,515.1094 981.75,515.5625 L981.75,515.6875 L980.2969,515.6875 L980.2969,513.2813 L984.2813,513.2813 L984.2813,514.1406 C984.2813,514.5469 984.3125,514.7188 984.3906,514.875 C984.5625,515.125 984.8438,515.2813 985.125,515.2813 C985.3906,515.2813 985.6563,515.1406 985.8281,514.9219 C985.9375,514.75 985.9688,514.6094 985.9688,514.1406 L985.9688,511.5938 L978.3438,511.5938 C977.9063,511.5938 977.7813,511.6094 977.625,511.7031 C977.375,511.8594 977.2188,512.1563 977.2188,512.4375 C977.2188,512.7188 977.3594,512.9688 977.5781,513.1406 C977.7344,513.25 977.9219,513.2813 978.3438,513.2813 L978.5938,513.2813 L978.5938,519.7969 L978.3438,519.7969 C977.9375,519.7969 977.7813,519.8125 977.625,519.9219 C977.375,520.0938 977.2188,520.3594 977.2188,520.6563 C977.2188,520.9219 977.3594,521.1719 977.5781,521.3281 C977.7188,521.4531 977.9531,521.5 978.3438,521.5 L986.3438,521.5 L986.3438,518.9219 C986.3438,518.4844 986.3125,518.3438 986.2344,518.1875 C986.0625,517.9375 985.7813,517.7813 985.5,517.7813 C985.2344,517.7813 984.9688,517.8906 984.7969,518.1406 C984.6875,518.2969 984.6563,518.4375 984.6563,518.9219 L984.6563,519.7969 L980.2969,519.7969 L980.2969,517.375 Z " fill="#000000"/><text fill="#000000" font-family="sans-serif" font-size="12" lengthAdjust="spacing" textLength="63" x="995.5" y="520.6543">Continents</text><line style="stroke:#A80036;stroke-width:1.5;" x1="967.5" x2="1060.5" y1="532.5" y2="532.5"/><text fill="#000000" font-family="sans-serif" font-size="11" lengthAdjust="spacing" textLength="80" x="972.5" y="546.7104">SouthAmerica</text><text fill="#000000" font-family="sans-serif" font-size="11" lengthAdjust="spacing" textLength="40" x="972.5" y="559.5151">Europe</text><text fill="#000000" font-family="sans-serif" font-size="11" lengthAdjust="spacing" textLength="73" x="972.5" y="572.3198">NothAmerica</text><text fill="#000000" font-family="sans-serif" font-size="11" lengthAdjust="spacing" textLength="24" x="972.5" y="585.1245">Asia</text><text fill="#000000" font-family="sans-serif" font-size="11" lengthAdjust="spacing" textLength="49" x="972.5" y="597.9292">Australia</text><!--MD5=[44afabe4df5639a637fef24402bd5990]
class HazardLevel--><rect codeLine="65" fill="#FEFECE" filter="url(#fskesdb7i0ez6)" height="65.6094" id="HazardLevel" style="stroke:#A80036;stroke-width:1.5;" width="107" x="30.5" y="671"/><ellipse cx="45.5" cy="687" fill="#EB937F" rx="11" ry="11" style="stroke:#A80036;stroke-width:1.0;"/><path d="M44.2969,687.875 L45.75,687.875 L45.75,687.9844 C45.75,688.3906 45.7813,688.5469 45.8594,688.7031 C46.0156,688.9531 46.2969,689.1094 46.5938,689.1094 C46.8438,689.1094 47.1094,688.9688 47.2656,688.75 C47.3906,688.5938 47.4219,688.4375 47.4219,687.9844 L47.4219,686.0625 C47.4219,685.9063 47.4219,685.8594 47.4063,685.7031 C47.3438,685.2344 47.0313,684.9219 46.5781,684.9219 C46.3281,684.9219 46.0625,685.0625 45.8906,685.2813 C45.7813,685.4531 45.75,685.6094 45.75,686.0625 L45.75,686.1875 L44.2969,686.1875 L44.2969,683.7813 L48.2813,683.7813 L48.2813,684.6406 C48.2813,685.0469 48.3125,685.2188 48.3906,685.375 C48.5625,685.625 48.8438,685.7813 49.125,685.7813 C49.3906,685.7813 49.6563,685.6406 49.8281,685.4219 C49.9375,685.25 49.9688,685.1094 49.9688,684.6406 L49.9688,682.0938 L42.3438,682.0938 C41.9063,682.0938 41.7813,682.1094 41.625,682.2031 C41.375,682.3594 41.2188,682.6563 41.2188,682.9375 C41.2188,683.2188 41.3594,683.4688 41.5781,683.6406 C41.7344,683.75 41.9219,683.7813 42.3438,683.7813 L42.5938,683.7813 L42.5938,690.2969 L42.3438,690.2969 C41.9375,690.2969 41.7813,690.3125 41.625,690.4219 C41.375,690.5938 41.2188,690.8594 41.2188,691.1563 C41.2188,691.4219 41.3594,691.6719 41.5781,691.8281 C41.7188,691.9531 41.9531,692 42.3438,692 L50.3438,692 L50.3438,689.4219 C50.3438,688.9844 50.3125,688.8438 50.2344,688.6875 C50.0625,688.4375 49.7813,688.2813 49.5,688.2813 C49.2344,688.2813 48.9688,688.3906 48.7969,688.6406 C48.6875,688.7969 48.6563,688.9375 48.6563,689.4219 L48.6563,690.2969 L44.2969,690.2969 L44.2969,687.875 Z " fill="#000000"/><text fill="#000000" font-family="sans-serif" font-size="12" lengthAdjust="spacing" textLength="75" x="59.5" y="691.1543">HazardLevel</text><line style="stroke:#A80036;stroke-width:1.5;" x1="31.5" x2="136.5" y1="703" y2="703"/><text fill="#000000" font-family="sans-serif" font-size="11" lengthAdjust="spacing" textLength="30" x="36.5" y="717.2104">None</text><text fill="#000000" font-family="sans-serif" font-size="11" lengthAdjust="spacing" textLength="62" x="36.5" y="730.0151">Dangerous</text><!--MD5=[d880429f06877f77d04df3530938df96]
class Roles--><rect codeLine="71" fill="#FEFECE" filter="url(#fskesdb7i0ez6)" height="116.8281" id="Roles" style="stroke:#A80036;stroke-width:1.5;" width="85" x="821.5" y="105"/><ellipse cx="845.5" cy="121" fill="#EB937F" rx="11" ry="11" style="stroke:#A80036;stroke-width:1.0;"/><path d="M844.2969,121.875 L845.75,121.875 L845.75,121.9844 C845.75,122.3906 845.7813,122.5469 845.8594,122.7031 C846.0156,122.9531 846.2969,123.1094 846.5938,123.1094 C846.8438,123.1094 847.1094,122.9688 847.2656,122.75 C847.3906,122.5938 847.4219,122.4375 847.4219,121.9844 L847.4219,120.0625 C847.4219,119.9063 847.4219,119.8594 847.4063,119.7031 C847.3438,119.2344 847.0313,118.9219 846.5781,118.9219 C846.3281,118.9219 846.0625,119.0625 845.8906,119.2813 C845.7813,119.4531 845.75,119.6094 845.75,120.0625 L845.75,120.1875 L844.2969,120.1875 L844.2969,117.7813 L848.2813,117.7813 L848.2813,118.6406 C848.2813,119.0469 848.3125,119.2188 848.3906,119.375 C848.5625,119.625 848.8438,119.7813 849.125,119.7813 C849.3906,119.7813 849.6563,119.6406 849.8281,119.4219 C849.9375,119.25 849.9688,119.1094 849.9688,118.6406 L849.9688,116.0938 L842.3438,116.0938 C841.9063,116.0938 841.7813,116.1094 841.625,116.2031 C841.375,116.3594 841.2188,116.6563 841.2188,116.9375 C841.2188,117.2188 841.3594,117.4688 841.5781,117.6406 C841.7344,117.75 841.9219,117.7813 842.3438,117.7813 L842.5938,117.7813 L842.5938,124.2969 L842.3438,124.2969 C841.9375,124.2969 841.7813,124.3125 841.625,124.4219 C841.375,124.5938 841.2188,124.8594 841.2188,125.1563 C841.2188,125.4219 841.3594,125.6719 841.5781,125.8281 C841.7188,125.9531 841.9531,126 842.3438,126 L850.3438,126 L850.3438,123.4219 C850.3438,122.9844 850.3125,122.8438 850.2344,122.6875 C850.0625,122.4375 849.7813,122.2813 849.5,122.2813 C849.2344,122.2813 848.9688,122.3906 848.7969,122.6406 C848.6875,122.7969 848.6563,122.9375 848.6563,123.4219 L848.6563,124.2969 L844.2969,124.2969 L844.2969,121.875 Z " fill="#000000"/><text fill="#000000" font-family="sans-serif" font-size="12" lengthAdjust="spacing" textLength="33" x="861.5" y="125.1543">Roles</text><line style="stroke:#A80036;stroke-width:1.5;" x1="822.5" x2="905.5" y1="137" y2="137"/><text fill="#000000" font-family="sans-serif" font-size="11" lengthAdjust="spacing" textLength="48" x="827.5" y="151.2104">Exporter</text><text fill="#000000" font-family="sans-serif" font-size="11" lengthAdjust="spacing" textLength="49" x="827.5" y="164.0151">Customs</text><text fill="#000000" font-family="sans-serif" font-size="11" lengthAdjust="spacing" textLength="73" x="827.5" y="176.8198">ShippingLine</text><text fill="#000000" font-family="sans-serif" font-size="11" lengthAdjust="spacing" textLength="22" x="827.5" y="189.6245">PCS</text><text fill="#000000" font-family="sans-serif" font-size="11" lengthAdjust="spacing" textLength="50" x="827.5" y="202.4292">Terminal</text><text fill="#000000" font-family="sans-serif" font-size="11" lengthAdjust="spacing" textLength="72" x="827.5" y="215.2339">PortAuthority</text><!--MD5=[60d6b92408f98aed8df94d5c6e04aa63]
class State--><rect codeLine="81" fill="#FEFECE" filter="url(#fskesdb7i0ez6)" height="116.8281" id="State" style="stroke:#A80036;stroke-width:1.5;" width="70" x="674" y="494"/><ellipse cx="692.15" cy="510" fill="#EB937F" rx="11" ry="11" style="stroke:#A80036;stroke-width:1.0;"/><path d="M690.9469,510.875 L692.4,510.875 L692.4,510.9844 C692.4,511.3906 692.4313,511.5469 692.5094,511.7031 C692.6656,511.9531 692.9469,512.1094 693.2438,512.1094 C693.4938,512.1094 693.7594,511.9688 693.9156,511.75 C694.0406,511.5938 694.0719,511.4375 694.0719,510.9844 L694.0719,509.0625 C694.0719,508.9063 694.0719,508.8594 694.0563,508.7031 C693.9938,508.2344 693.6813,507.9219 693.2281,507.9219 C692.9781,507.9219 692.7125,508.0625 692.5406,508.2813 C692.4313,508.4531 692.4,508.6094 692.4,509.0625 L692.4,509.1875 L690.9469,509.1875 L690.9469,506.7813 L694.9313,506.7813 L694.9313,507.6406 C694.9313,508.0469 694.9625,508.2188 695.0406,508.375 C695.2125,508.625 695.4938,508.7813 695.775,508.7813 C696.0406,508.7813 696.3063,508.6406 696.4781,508.4219 C696.5875,508.25 696.6188,508.1094 696.6188,507.6406 L696.6188,505.0938 L688.9938,505.0938 C688.5563,505.0938 688.4313,505.1094 688.275,505.2031 C688.025,505.3594 687.8688,505.6563 687.8688,505.9375 C687.8688,506.2188 688.0094,506.4688 688.2281,506.6406 C688.3844,506.75 688.5719,506.7813 688.9938,506.7813 L689.2438,506.7813 L689.2438,513.2969 L688.9938,513.2969 C688.5875,513.2969 688.4313,513.3125 688.275,513.4219 C688.025,513.5938 687.8688,513.8594 687.8688,514.1563 C687.8688,514.4219 688.0094,514.6719 688.2281,514.8281 C688.3688,514.9531 688.6031,515 688.9938,515 L696.9938,515 L696.9938,512.4219 C696.9938,511.9844 696.9625,511.8438 696.8844,511.6875 C696.7125,511.4375 696.4313,511.2813 696.15,511.2813 C695.8844,511.2813 695.6188,511.3906 695.4469,511.6406 C695.3375,511.7969 695.3063,511.9375 695.3063,512.4219 L695.3063,513.2969 L690.9469,513.2969 L690.9469,510.875 Z " fill="#000000"/><text fill="#000000" font-family="sans-serif" font-size="12" lengthAdjust="spacing" textLength="31" x="706.85" y="514.1543">State</text><line style="stroke:#A80036;stroke-width:1.5;" x1="675" x2="743" y1="526" y2="526"/><text fill="#000000" font-family="sans-serif" font-size="11" lengthAdjust="spacing" textLength="46" x="680" y="540.2104">Created</text><text fill="#000000" font-family="sans-serif" font-size="11" lengthAdjust="spacing" textLength="57" x="680" y="553.0151">Delivered</text><text fill="#000000" font-family="sans-serif" font-size="11" lengthAdjust="spacing" textLength="58" x="680" y="565.8198">Presented</text><text fill="#000000" font-family="sans-serif" font-size="11" lengthAdjust="spacing" textLength="40" x="680" y="578.6245">Locked</text><text fill="#000000" font-family="sans-serif" font-size="11" lengthAdjust="spacing" textLength="45" x="680" y="591.4292">Cleared</text><text fill="#000000" font-family="sans-serif" font-size="11" lengthAdjust="spacing" textLength="42" x="680" y="604.2339">Loaded</text><!--MD5=[0756c4bef6f24a137c7a1b6c854be388]
class CT_AssignedRoles--><rect codeLine="91" fill="#ADD8E6" filter="url(#fskesdb7i0ez6)" height="37.9375" id="CT_AssignedRoles" style="stroke:#A80036;stroke-width:1.5;" width="154" x="787" y="7"/><ellipse cx="802" cy="25.9688" fill="#ADD1B2" rx="11" ry="11" style="stroke:#A80036;stroke-width:1.0;"/><path d="M804.3438,21.6406 C803.4063,21.2031 802.8125,21.0625 801.9375,21.0625 C799.3125,21.0625 797.3125,23.1406 797.3125,25.8594 L797.3125,26.9844 C797.3125,29.5625 799.4219,31.4531 802.3125,31.4531 C803.5313,31.4531 804.6875,31.1563 805.4375,30.6094 C806.0156,30.2031 806.3438,29.75 806.3438,29.3594 C806.3438,28.9063 805.9531,28.5156 805.4844,28.5156 C805.2656,28.5156 805.0625,28.5938 804.875,28.7813 C804.4219,29.2656 804.4219,29.2656 804.2344,29.3594 C803.8125,29.625 803.125,29.75 802.3594,29.75 C800.3125,29.75 799.0156,28.6563 799.0156,26.9531 L799.0156,25.8594 C799.0156,24.0781 800.2656,22.7656 802,22.7656 C802.5781,22.7656 803.1875,22.9219 803.6563,23.1719 C804.1406,23.4531 804.3125,23.6719 804.4063,24.0781 C804.4688,24.4844 804.5,24.6094 804.6406,24.7344 C804.7813,24.875 805.0156,24.9844 805.2344,24.9844 C805.5,24.9844 805.7656,24.8438 805.9375,24.625 C806.0469,24.4688 806.0781,24.2813 806.0781,23.8594 L806.0781,22.4375 C806.0781,22 806.0625,21.875 805.9688,21.7188 C805.8125,21.4531 805.5313,21.3125 805.2344,21.3125 C804.9375,21.3125 804.7344,21.4063 804.5156,21.7188 L804.3438,21.6406 Z " fill="#000000"/><text fill="#000000" font-family="sans-serif" font-size="12" font-style="italic" lengthAdjust="spacing" textLength="126" x="814" y="23.1387">«CharacteristicType»</text><text fill="#000000" font-family="sans-serif" font-size="12" lengthAdjust="spacing" textLength="110" x="822" y="37.1074">CT_AssignedRoles</text><!--MD5=[ed5c837988ff33ef996b9db5223bde05]
link Dangerous to CT_Dangerous--><path codeLine="16" d="M84,434.104 C84,459.889 84,502.314 84,528.484 " fill="none" id="Dangerous-to-CT_Dangerous" style="stroke:#A80036;stroke-width:1.0;"/><polygon fill="#A80036" points="84,533.492,88,524.492,84,528.492,80,524.492,84,533.492" style="stroke:#A80036;stroke-width:1.0;"/><!--MD5=[2fe62e4d16399e7c1aeb08b273133b3d]
link Destination to CT_State--><path codeLine="19" d="M893.375,328.056 C852.25,346.333 794.279,372.098 754.375,389.833 " fill="none" id="Destination-to-CT_State" style="stroke:#A80036;stroke-width:1.0;"/><polygon fill="#A80036" points="749.601,391.955,759.4499,391.9544,754.1699,389.924,756.2003,384.6441,749.601,391.955" style="stroke:#A80036;stroke-width:1.0;"/><!--MD5=[5b4be21c63385e01efea034e281b15fd]
link Destination to CT_Destination--><path codeLine="20" d="M938.122,328.056 C934.322,345.239 929.058,369.04 925.183,386.565 " fill="none" id="Destination-to-CT_Destination" style="stroke:#A80036;stroke-width:1.0;"/><polygon fill="#A80036" points="924.028,391.788,929.8778,383.8646,925.1081,386.9061,922.0667,382.1364,924.028,391.788" style="stroke:#A80036;stroke-width:1.0;"/><!--MD5=[9b286f2d12302be0346f27482dd75d36]
link Destination to CT_Origin--><path codeLine="21" d="M978.204,328.056 C1007.02,346.11 1047.5,371.471 1075.77,389.181 " fill="none" id="Destination-to-CT_Origin" style="stroke:#A80036;stroke-width:1.0;"/><polygon fill="#A80036" points="1080.2,391.955,1074.7004,383.7847,1075.964,389.2986,1070.4501,390.5622,1080.2,391.955" style="stroke:#A80036;stroke-width:1.0;"/><!--MD5=[d4161886d65139f28b0d4bae6b00d4c4]
link VGM to CT_State--><path codeLine="24" d="M639.663,328.056 C654.578,345.683 675.387,370.276 690.31,387.912 " fill="none" id="VGM-to-CT_State" style="stroke:#A80036;stroke-width:1.0;"/><polygon fill="#A80036" points="693.59,391.788,690.832,382.3332,690.3611,387.9704,684.7238,387.4995,693.59,391.788" style="stroke:#A80036;stroke-width:1.0;"/><!--MD5=[cb30c495255f8abc2c70090a058605bc]
link ContainerAttributes to CT_State--><path codeLine="27" d="M766.519,328.056 C754.249,345.535 737.173,369.863 724.817,387.466 " fill="none" id="ContainerAttributes-to-CT_State" style="stroke:#A80036;stroke-width:1.0;"/><polygon fill="#A80036" points="721.783,391.788,730.2285,386.721,724.6563,387.696,723.6813,382.1238,721.783,391.788" style="stroke:#A80036;stroke-width:1.0;"/><!--MD5=[4d33c4658aeef5baa5d8932048d3023c]
reverse link Order to OrderNumber--><path codeLine="30" d="M535,58.478 C535,83.626 535,118.228 535,140.482 " fill="none" id="Order-backto-OrderNumber" style="stroke:#A80036;stroke-width:1.0;"/><polygon fill="#A80036" points="535,45.274,531,51.274,535,57.274,539,51.274,535,45.274" style="stroke:#A80036;stroke-width:1.0;"/><!--MD5=[6d89e5382e08c3711b510243172a2d1b]
link OrderNumber to CT_State--><path codeLine="31" d="M530.987,186.532 C526.12,220.152 521.833,284.889 551,328 C571.137,357.764 605.578,377.407 637.175,389.983 " fill="none" id="OrderNumber-to-CT_State" style="stroke:#A80036;stroke-width:1.0;"/><polygon fill="#A80036" points="642.219,391.941,635.2771,384.9546,637.558,390.1312,632.3814,392.4121,642.219,391.941" style="stroke:#A80036;stroke-width:1.0;"/><!--MD5=[34bec3118849563a807b6460af4a844d]
reverse link Order to Declaration--><path codeLine="35" d="M506.016,54.464 C477.836,81.166 435.817,120.981 411.437,144.083 " fill="none" id="Order-backto-Declaration" style="stroke:#A80036;stroke-width:1.0;"/><polygon fill="#A80036" points="515.714,45.274,508.6074,46.497,507.003,53.5274,514.1096,52.3044,515.714,45.274" style="stroke:#A80036;stroke-width:1.0;"/><!--MD5=[e775a215fcb1b06e91de4807855f7bc2]
reverse link Order to Container--><path codeLine="36" d="M573.317,52.576 C613.413,79.34 675.351,120.682 710.733,144.3 " fill="none" id="Order-backto-Container" style="stroke:#A80036;stroke-width:1.0;"/><polygon fill="#A80036" points="562.377,45.274,565.1468,51.9319,572.358,51.9359,569.5881,45.278,562.377,45.274" style="stroke:#A80036;stroke-width:1.0;"/><!--MD5=[cbe46428744e66836e437ec702f2f209]
reverse link Declaration to MRN--><path codeLine="40" d="M394.258,196.006 C396.127,222.067 398.734,258.44 400.395,281.606 " fill="none" id="Declaration-backto-MRN" style="stroke:#A80036;stroke-width:1.0;"/><polygon fill="#A80036" points="393.307,182.737,389.7458,189.0074,394.1642,194.7063,397.7254,188.4359,393.307,182.737" style="stroke:#A80036;stroke-width:1.0;"/><!--MD5=[40f014c519885cacef078b6b88f312ee]
reverse link Declaration to Item--><path codeLine="41" d="M366.79,192.635 C341.906,220.405 304.59,262.05 283.346,285.758 " fill="none" id="Declaration-backto-Item" style="stroke:#A80036;stroke-width:1.0;"/><polygon fill="#A80036" points="375.658,182.737,368.6752,184.537,367.651,191.675,374.6338,189.875,375.658,182.737" style="stroke:#A80036;stroke-width:1.0;"/><!--MD5=[fc00d45be6f04d11286225caf3489e87]
reverse link Item to Kind--><path codeLine="45" d="M254.144,336.386 C247.189,352.826 238.75,372.772 232.412,387.753 " fill="none" id="Item-backto-Kind" style="stroke:#A80036;stroke-width:1.0;"/><polygon fill="#A80036" points="259.336,324.115,253.3142,328.0821,254.6601,335.1665,260.6819,331.1994,259.336,324.115" style="stroke:#A80036;stroke-width:1.0;"/><!--MD5=[be8f88f0a52f67777a7c85e31a6701ee]
reverse link Item to Amount--><path codeLine="46" d="M292.551,333.972 C307.959,350.839 327.317,372.031 341.678,387.753 " fill="none" id="Item-backto-Amount" style="stroke:#A80036;stroke-width:1.0;"/><polygon fill="#A80036" points="283.548,324.115,284.641,331.2428,291.6409,332.9753,290.5479,325.8476,283.548,324.115" style="stroke:#A80036;stroke-width:1.0;"/><!--MD5=[799cc44d2461a2ae4ded7a405fbdc1c1]
reverse link Item to Dangerous--><path codeLine="47" d="M223.516,330.712 C192.918,348.101 152.324,371.171 122.817,387.94 " fill="none" id="Item-backto-Dangerous" style="stroke:#A80036;stroke-width:1.0;"/><polygon fill="#A80036" points="235.124,324.115,227.9311,323.6027,224.6917,330.0452,231.8846,330.5575,235.124,324.115" style="stroke:#A80036;stroke-width:1.0;"/><!--MD5=[5f7aa466677589df510e8cf7fcbd7e1a]
reverse link Item to Description--><path codeLine="48" d="M319.769,329.453 C359.193,346.975 412.717,370.763 451.366,387.94 " fill="none" id="Item-backto-Description" style="stroke:#A80036;stroke-width:1.0;"/><polygon fill="#A80036" points="307.76,324.115,311.6183,330.2071,318.7257,328.9887,314.8674,322.8966,307.76,324.115" style="stroke:#A80036;stroke-width:1.0;"/><!--MD5=[d1e4dec1a93efd2fbb5e7c7b3af71b36]
reverse link Container to ContainerAttributes--><path codeLine="52" d="M747.71,195.284 C755.945,221.392 767.562,258.225 774.937,281.606 " fill="none" id="Container-backto-ContainerAttributes" style="stroke:#A80036;stroke-width:1.0;"/><polygon fill="#A80036" points="743.752,182.737,741.7425,189.6624,747.3623,194.181,749.3718,187.2556,743.752,182.737" style="stroke:#A80036;stroke-width:1.0;"/><!--MD5=[60512b83df3e7f2063374a2b15e04ae6]
reverse link Container to Destination--><path codeLine="53" d="M766.575,191.427 C777.853,201.505 791.166,212.744 804,222 C835.133,244.454 872.752,266.359 900.999,281.872 " fill="none" id="Container-backto-Destination" style="stroke:#A80036;stroke-width:1.0;"/><polygon fill="#A80036" points="756.861,182.589,758.6072,189.5855,765.7371,190.6646,763.9909,183.6681,756.861,182.589" style="stroke:#A80036;stroke-width:1.0;"/><!--MD5=[99e3e55ba9a0c204d8c6f1dba610f83f]
reverse link Container to VGM--><path codeLine="54" d="M714.262,192.803 C692.279,219.013 660.021,257.474 639.782,281.606 " fill="none" id="Container-backto-VGM" style="stroke:#A80036;stroke-width:1.0;"/><polygon fill="#A80036" points="722.704,182.737,715.7835,184.7634,714.9923,191.931,721.9128,189.9046,722.704,182.737" style="stroke:#A80036;stroke-width:1.0;"/><!--MD5=[6c18c1730d12d1e99c409c311a3039b7]
link CT_AssignedRoles to Roles--><path codeLine="93" d="M864,45.274 C864,59.392 864,79.812 864,99.667 " fill="none" id="CT_AssignedRoles-to-Roles" style="stroke:#A80036;stroke-width:1.0;"/><polygon fill="#A80036" points="864,104.698,868,95.698,864,99.698,860,95.698,864,104.698" style="stroke:#A80036;stroke-width:1.0;"/><!--MD5=[b8c5c2dfaa7c9b8cb722eece2b214086]
link CT_Dangerous to HazardLevel--><path codeLine="97" d="M84,571.533 C84,594.732 84,635.612 84,665.6441 " fill="none" id="CT_Dangerous-to-HazardLevel" style="stroke:#A80036;stroke-width:1.0;"/><polygon fill="#A80036" points="84,670.7419,88,661.7419,84,665.7419,80,661.7419,84,670.7419" style="stroke:#A80036;stroke-width:1.0;"/><!--MD5=[374c2dc97a2b05aaf9e5ef6cca44bbd4]
link CT_State to State--><path codeLine="101" d="M709,430.237 C709,445.211 709,467.34 709,488.611 " fill="none" id="CT_State-to-State" style="stroke:#A80036;stroke-width:1.0;"/><polygon fill="#A80036" points="709,493.706,713,484.706,709,488.706,705,484.706,709,493.706" style="stroke:#A80036;stroke-width:1.0;"/><!--MD5=[b7d3f310b15347fb5445aa53f1795579]
link CT_Origin to Continents--><path codeLine="105" d="M1096.58,430.237 C1085.22,446.924 1067.8,472.497 1051.89,495.864 " fill="none" id="CT_Origin-to-Continents" style="stroke:#A80036;stroke-width:1.0;"/><polygon fill="#A80036" points="1048.94,500.199,1057.306,495.002,1051.7496,496.063,1050.6885,490.5066,1048.94,500.199" style="stroke:#A80036;stroke-width:1.0;"/><!--MD5=[1f06842feb0611002bcc0c4595f37951]
link CT_Destination to Continents--><path codeLine="109" d="M932.289,430.237 C943.533,446.924 960.765,472.497 976.511,495.864 " fill="none" id="CT_Destination-to-Continents" style="stroke:#A80036;stroke-width:1.0;"/><polygon fill="#A80036" points="979.432,500.199,977.7202,490.5,976.6381,496.0524,971.0857,494.9703,979.432,500.199" style="stroke:#A80036;stroke-width:1.0;"/><!--MD5=[eaf492e0d6c3e7551ebcd84f24d3a148]
@startuml
skinparam class {
    BackgroundColor<<RealType>> Wheat
    BackgroundColor<<Parameter>> LightGreen
    BackgroundColor<<CharacteristicType>> LightBlue
    BackgroundColor<<ReturnType>> LightGrey
}

hide methods

class MRN <<Parameter>>
class Kind <<Parameter>>
class Amount <<Parameter>>
class Description <<Parameter>>

class Dangerous <<Parameter>>
Dangerous - -> CT_Dangerous

class Destination <<Parameter>>
Destination - -> CT_State
Destination - -> CT_Destination
Destination - -> CT_Origin

class VGM <<Parameter>>
VGM - -> CT_State

class ContainerAttributes <<Parameter>>
ContainerAttributes - -> CT_State

class OrderNumber <<ReturnType>>
Order *- - OrderNumber
OrderNumber - -> CT_State

abstract class Order <<RealType>>
hide Order members
Order *- - Declaration
Order *- - Container

abstract class Declaration <<RealType>>
hide Declaration members
Declaration *- - MRN
Declaration *- - Item

abstract class Item <<RealType>>
hide Item members
Item *- - Kind
Item *- - Amount
Item *- - Dangerous
Item *- - Description

abstract class Container <<RealType>>
hide Container members
Container *- - ContainerAttributes
Container *- - Destination
Container *- - VGM

enum Continents {
	SouthAmerica
	Europe
	NothAmerica
	Asia
	Australia
}
hide Continents methods

enum HazardLevel {
    None
    Dangerous
}
hide HazardLevel methods

enum Roles {
    Exporter
	Customs
	ShippingLine
	PCS
	Terminal
	PortAuthority
}
hide Roles methods

enum State {
	Created
	Delivered
	Presented
	Locked
	Cleared
	Loaded
}
hide State methods

class CT_AssignedRoles <<CharacteristicType>>
hide CT_AssignedRoles members
CT_AssignedRoles - -> Roles

class CT_Dangerous <<CharacteristicType>>
hide CT_Dangerous members
CT_Dangerous - -> HazardLevel

class CT_State <<CharacteristicType>>
hide CT_State members
CT_State - -> State

class CT_Origin <<CharacteristicType>>
hide CT_Origin members
CT_Origin - -> Continents

class CT_Destination <<CharacteristicType>>
hide CT_Destination members
CT_Destination - -> Continents
@enduml

PlantUML version 1.2021.16beta3(Unknown compile time)
(GPL source distribution)
Java Runtime: Java(TM) SE Runtime Environment
JVM: Java HotSpot(TM) 64-Bit Server VM
Default Encoding: UTF-8
Language: en
Country: US
--></g></svg>