<?xml version="1.0" encoding="UTF-8" standalone="no"?><svg xmlns="http://www.w3.org/2000/svg" xmlns:xlink="http://www.w3.org/1999/xlink" contentScriptType="application/ecmascript" contentStyleType="text/css" height="1269px" preserveAspectRatio="none" style="width:1487px;height:1269px;background:#FFFFFF;" version="1.1" viewBox="0 0 1487 1269" width="1487px" zoomAndPan="magnify"><defs><filter height="300%" id="fz72x0dlrb0pq" width="300%" x="-1" y="-1"><feGaussianBlur result="blurOut" stdDeviation="2.0"/><feColorMatrix in="blurOut" result="blurOut2" type="matrix" values="0 0 0 0 0 0 0 0 0 0 0 0 0 0 0 0 0 0 .4 0"/><feOffset dx="4.0" dy="4.0" in="blurOut2" result="blurOut3"/><feBlend in="SourceGraphic" in2="blurOut3" mode="normal"/></filter></defs><g><rect fill="#FFFFFF" filter="url(#fz72x0dlrb0pq)" height="56.2656" style="stroke:#000000;stroke-width:2.0;" width="723" x="750" y="304.2266"/><rect fill="#FFFFFF" filter="url(#fz72x0dlrb0pq)" height="56.2656" style="stroke:#000000;stroke-width:2.0;" width="723" x="750" y="525.0234"/><rect fill="#FFFFFF" filter="url(#fz72x0dlrb0pq)" height="182.7969" style="stroke:#000000;stroke-width:2.0;" width="920.5" x="276" y="634.4219"/><rect fill="#FFFFFF" filter="url(#fz72x0dlrb0pq)" height="56.2656" style="stroke:#000000;stroke-width:2.0;" width="723" x="750" y="1006.8828"/><line style="stroke:#A80036;stroke-width:1.0;stroke-dasharray:5.0,5.0;" x1="208" x2="208" y1="40.2969" y2="1226.6797"/><line style="stroke:#A80036;stroke-width:1.0;stroke-dasharray:5.0,5.0;" x1="426" x2="426" y1="40.2969" y2="1226.6797"/><line style="stroke:#A80036;stroke-width:1.0;stroke-dasharray:5.0,5.0;" x1="532" x2="532" y1="40.2969" y2="1226.6797"/><line style="stroke:#A80036;stroke-width:1.0;stroke-dasharray:5.0,5.0;" x1="783" x2="783" y1="40.2969" y2="1226.6797"/><line style="stroke:#A80036;stroke-width:1.0;stroke-dasharray:5.0,5.0;" x1="1145.5" x2="1145.5" y1="40.2969" y2="1226.6797"/><line style="stroke:#A80036;stroke-width:1.0;stroke-dasharray:5.0,5.0;" x1="1285.5" x2="1285.5" y1="40.2969" y2="1226.6797"/><rect fill="#FEFECE" filter="url(#fz72x0dlrb0pq)" height="30.2969" style="stroke:#A80036;stroke-width:1.5;" width="78" x="167" y="5"/><text fill="#000000" font-family="sans-serif" font-size="14" lengthAdjust="spacing" textLength="64" x="174" y="24.9951">Exporter</text><rect fill="#FEFECE" filter="url(#fz72x0dlrb0pq)" height="30.2969" style="stroke:#A80036;stroke-width:1.5;" width="78" x="167" y="1225.6797"/><text fill="#000000" font-family="sans-serif" font-size="14" lengthAdjust="spacing" textLength="64" x="174" y="1245.6748">Exporter</text><rect fill="#FEFECE" filter="url(#fz72x0dlrb0pq)" height="30.2969" style="stroke:#A80036;stroke-width:1.5;" width="76" x="386" y="5"/><text fill="#000000" font-family="sans-serif" font-size="14" lengthAdjust="spacing" textLength="62" x="393" y="24.9951">Customs</text><rect fill="#FEFECE" filter="url(#fz72x0dlrb0pq)" height="30.2969" style="stroke:#A80036;stroke-width:1.5;" width="76" x="386" y="1225.6797"/><text fill="#000000" font-family="sans-serif" font-size="14" lengthAdjust="spacing" textLength="62" x="393" y="1245.6748">Customs</text><rect fill="#FEFECE" filter="url(#fz72x0dlrb0pq)" height="30.2969" style="stroke:#A80036;stroke-width:1.5;" width="108" x="476" y="5"/><text fill="#000000" font-family="sans-serif" font-size="14" lengthAdjust="spacing" textLength="94" x="483" y="24.9951">ShippingLine</text><rect fill="#FEFECE" filter="url(#fz72x0dlrb0pq)" height="30.2969" style="stroke:#A80036;stroke-width:1.5;" width="108" x="476" y="1225.6797"/><text fill="#000000" font-family="sans-serif" font-size="14" lengthAdjust="spacing" textLength="94" x="483" y="1245.6748">ShippingLine</text><rect fill="#FEFECE" filter="url(#fz72x0dlrb0pq)" height="30.2969" style="stroke:#A80036;stroke-width:1.5;" width="42" x="760" y="5"/><text fill="#000000" font-family="sans-serif" font-size="14" lengthAdjust="spacing" textLength="28" x="767" y="24.9951">PCS</text><rect fill="#FEFECE" filter="url(#fz72x0dlrb0pq)" height="30.2969" style="stroke:#A80036;stroke-width:1.5;" width="42" x="760" y="1225.6797"/><text fill="#000000" font-family="sans-serif" font-size="14" lengthAdjust="spacing" textLength="28" x="767" y="1245.6748">PCS</text><rect fill="#FEFECE" filter="url(#fz72x0dlrb0pq)" height="30.2969" style="stroke:#A80036;stroke-width:1.5;" width="77" x="1105.5" y="5"/><text fill="#000000" font-family="sans-serif" font-size="14" lengthAdjust="spacing" textLength="63" x="1112.5" y="24.9951">Terminal</text><rect fill="#FEFECE" filter="url(#fz72x0dlrb0pq)" height="30.2969" style="stroke:#A80036;stroke-width:1.5;" width="77" x="1105.5" y="1225.6797"/><text fill="#000000" font-family="sans-serif" font-size="14" lengthAdjust="spacing" textLength="63" x="1112.5" y="1245.6748">Terminal</text><rect fill="#FEFECE" filter="url(#fz72x0dlrb0pq)" height="30.2969" style="stroke:#A80036;stroke-width:1.5;" width="113" x="1227.5" y="5"/><text fill="#000000" font-family="sans-serif" font-size="14" lengthAdjust="spacing" textLength="99" x="1234.5" y="24.9951">PortAuthority</text><rect fill="#FEFECE" filter="url(#fz72x0dlrb0pq)" height="30.2969" style="stroke:#A80036;stroke-width:1.5;" width="113" x="1227.5" y="1225.6797"/><text fill="#000000" font-family="sans-serif" font-size="14" lengthAdjust="spacing" textLength="99" x="1234.5" y="1245.6748">PortAuthority</text><line style="stroke:#A80036;stroke-width:1.0;" x1="206" x2="196" y1="71.4297" y2="67.4297"/><line style="stroke:#A80036;stroke-width:1.0;" x1="206" x2="196" y1="71.4297" y2="75.4297"/><line style="stroke:#A80036;stroke-width:1.0;" x1="0" x2="207" y1="71.4297" y2="71.4297"/><text fill="#000000" font-family="sans-serif" font-size="13" lengthAdjust="spacing" textLength="184" x="7" y="66.3638">receiveOrder(goods : Item[])</text><polygon fill="#A80036" points="414,96.5625,424,100.5625,414,104.5625,418,100.5625" style="stroke:#A80036;stroke-width:1.0;"/><line style="stroke:#A80036;stroke-width:1.0;" x1="208" x2="420" y1="100.5625" y2="100.5625"/><text fill="#000000" font-family="sans-serif" font-size="13" lengthAdjust="spacing" textLength="194" x="215" y="95.4966">declare_goods(goods : Item[])</text><polygon fill="#A80036" points="219,130.6953,209,134.6953,219,138.6953,215,134.6953" style="stroke:#A80036;stroke-width:1.0;"/><line style="stroke:#A80036;stroke-width:1.0;stroke-dasharray:2.0,2.0;" x1="213" x2="425" y1="134.6953" y2="134.6953"/><text fill="#000000" font-family="sans-serif" font-size="13" lengthAdjust="spacing" textLength="26" x="225" y="129.6294">mrn</text><path d="M431,113.5625 L431,138.5625 L518,138.5625 L518,123.5625 L508,113.5625 L431,113.5625 " fill="#FBFB77" filter="url(#fz72x0dlrb0pq)" style="stroke:#A80036;stroke-width:1.0;"/><path d="M508,113.5625 L508,123.5625 L518,123.5625 L508,113.5625 " fill="#FBFB77" style="stroke:#A80036;stroke-width:1.0;"/><text fill="#000000" font-family="sans-serif" font-size="13" lengthAdjust="spacing" textLength="66" x="437" y="130.6294">send_MRN</text><polygon fill="#A80036" points="520,169.8281,530,173.8281,520,177.8281,524,173.8281" style="stroke:#A80036;stroke-width:1.0;"/><line style="stroke:#A80036;stroke-width:1.0;" x1="208" x2="526" y1="173.8281" y2="173.8281"/><text fill="#000000" font-family="sans-serif" font-size="13" lengthAdjust="spacing" textLength="273" x="215" y="168.7622">send_transport_order(mrn, goods : Item[])</text><path d="M537,152.6953 L537,177.6953 L676,177.6953 L676,162.6953 L666,152.6953 L537,152.6953 " fill="#32CD32" filter="url(#fz72x0dlrb0pq)" style="stroke:#A80036;stroke-width:1.0;"/><path d="M666,152.6953 L666,162.6953 L676,162.6953 L666,152.6953 " fill="#32CD32" style="stroke:#A80036;stroke-width:1.0;"/><text fill="#000000" font-family="sans-serif" font-size="13" lengthAdjust="spacing" textLength="118" x="543" y="169.7622">container: created</text><polygon fill="#A80036" points="771,208.9609,781,212.9609,771,216.9609,775,212.9609" style="stroke:#A80036;stroke-width:1.0;"/><line style="stroke:#A80036;stroke-width:1.0;" x1="532" x2="777" y1="212.9609" y2="212.9609"/><text fill="#000000" font-family="sans-serif" font-size="13" lengthAdjust="spacing" textLength="198" x="539" y="207.895">send_port_order(order : Order)</text><path d="M386,191.8281 L386,216.8281 L523,216.8281 L523,201.8281 L513,191.8281 L386,191.8281 " fill="#FBFB77" filter="url(#fz72x0dlrb0pq)" style="stroke:#A80036;stroke-width:1.0;"/><path d="M513,191.8281 L513,201.8281 L523,201.8281 L513,191.8281 " fill="#FBFB77" style="stroke:#A80036;stroke-width:1.0;"/><text fill="#000000" font-family="sans-serif" font-size="13" lengthAdjust="spacing" textLength="116" x="392" y="208.895">Order is PortOrder</text><line style="stroke:#A80036;stroke-width:1.0;" x1="1144" x2="1134" y1="247.0938" y2="243.0938"/><line style="stroke:#A80036;stroke-width:1.0;" x1="1144" x2="1134" y1="247.0938" y2="251.0938"/><line style="stroke:#A80036;stroke-width:1.0;" x1="783" x2="1145" y1="247.0938" y2="247.0938"/><text fill="#000000" font-family="sans-serif" font-size="13" lengthAdjust="spacing" textLength="198" x="790" y="242.0278">send_port_order(order : Order)</text><line style="stroke:#A80036;stroke-width:1.0;" x1="1146" x2="1188" y1="276.2266" y2="276.2266"/><line style="stroke:#A80036;stroke-width:1.0;" x1="1188" x2="1188" y1="276.2266" y2="289.2266"/><line style="stroke:#A80036;stroke-width:1.0;" x1="1147" x2="1188" y1="289.2266" y2="289.2266"/><polygon fill="#A80036" points="1157,285.2266,1147,289.2266,1157,293.2266,1153,289.2266" style="stroke:#A80036;stroke-width:1.0;"/><text fill="#000000" font-family="sans-serif" font-size="13" lengthAdjust="spacing" textLength="126" x="1153" y="271.1606">store(order : Order)</text><path d="M750,304.2266 L822,304.2266 L822,311.2266 L812,321.2266 L750,321.2266 L750,304.2266 " fill="#EEEEEE" style="stroke:#000000;stroke-width:1.0;"/><rect fill="none" height="56.2656" style="stroke:#000000;stroke-width:2.0;" width="723" x="750" y="304.2266"/><text fill="#000000" font-family="sans-serif" font-size="13" font-weight="bold" lengthAdjust="spacing" textLength="27" x="765" y="317.2935">opt</text><text fill="#000000" font-family="sans-serif" font-size="11" font-weight="bold" lengthAdjust="spacing" textLength="80" x="837" y="316.437">[dangerous]</text><line style="stroke:#A80036;stroke-width:1.0;" x1="1284" x2="1274" y1="347.4922" y2="343.4922"/><line style="stroke:#A80036;stroke-width:1.0;" x1="1284" x2="1274" y1="347.4922" y2="351.4922"/><line style="stroke:#A80036;stroke-width:1.0;" x1="783" x2="1285" y1="347.4922" y2="347.4922"/><text fill="#000000" font-family="sans-serif" font-size="13" lengthAdjust="spacing" textLength="198" x="790" y="342.4263">send_port_order(order : Order)</text><path d="M1291,326.3594 L1291,351.3594 L1454,351.3594 L1454,336.3594 L1444,326.3594 L1291,326.3594 " fill="#FFB6C1" filter="url(#fz72x0dlrb0pq)" style="stroke:#A80036;stroke-width:1.0;"/><path d="M1444,326.3594 L1444,336.3594 L1454,336.3594 L1444,326.3594 " fill="#FFB6C1" style="stroke:#A80036;stroke-width:1.0;"/><text fill="#000000" font-family="sans-serif" font-size="13" lengthAdjust="spacing" textLength="142" x="1297" y="343.4263">behavior not specified</text><polygon fill="#A80036" points="543,384.625,533,388.625,543,392.625,539,388.625" style="stroke:#A80036;stroke-width:1.0;"/><line style="stroke:#A80036;stroke-width:1.0;stroke-dasharray:2.0,2.0;" x1="537" x2="782" y1="388.625" y2="388.625"/><text fill="#000000" font-family="sans-serif" font-size="13" lengthAdjust="spacing" textLength="113" x="549" y="383.5591">portOrderNumber</text><polygon fill="#A80036" points="219,398.625,209,402.625,219,406.625,215,402.625" style="stroke:#A80036;stroke-width:1.0;"/><line style="stroke:#A80036;stroke-width:1.0;stroke-dasharray:2.0,2.0;" x1="213" x2="531" y1="402.625" y2="402.625"/><polygon fill="#A80036" points="1134,432.7578,1144,436.7578,1134,440.7578,1138,436.7578" style="stroke:#A80036;stroke-width:1.0;"/><line style="stroke:#A80036;stroke-width:1.0;" x1="208" x2="1140" y1="436.7578" y2="436.7578"/><text fill="#000000" font-family="sans-serif" font-size="13" lengthAdjust="spacing" textLength="188" x="215" y="431.6919">deliver(container : Container)</text><path d="M1151,415.625 L1151,440.625 L1300,440.625 L1300,425.625 L1290,415.625 L1151,415.625 " fill="#32CD32" filter="url(#fz72x0dlrb0pq)" style="stroke:#A80036;stroke-width:1.0;"/><path d="M1290,415.625 L1290,425.625 L1300,425.625 L1290,415.625 " fill="#32CD32" style="stroke:#A80036;stroke-width:1.0;"/><text fill="#000000" font-family="sans-serif" font-size="13" lengthAdjust="spacing" textLength="128" x="1157" y="432.6919">container: delivered</text><line style="stroke:#A80036;stroke-width:1.0;" x1="532" x2="542" y1="475.8906" y2="471.8906"/><line style="stroke:#A80036;stroke-width:1.0;" x1="532" x2="542" y1="475.8906" y2="479.8906"/><line style="stroke:#A80036;stroke-width:1.0;" x1="532" x2="1145" y1="475.8906" y2="475.8906"/><text fill="#000000" font-family="sans-serif" font-size="13" lengthAdjust="spacing" textLength="323" x="549" y="470.8247">send_Gate_in(order : Order, container : Container)</text><path d="M360,454.7578 L360,479.7578 L523,479.7578 L523,464.7578 L513,454.7578 L360,454.7578 " fill="#FFB6C1" filter="url(#fz72x0dlrb0pq)" style="stroke:#A80036;stroke-width:1.0;"/><path d="M513,454.7578 L513,464.7578 L523,464.7578 L513,454.7578 " fill="#FFB6C1" style="stroke:#A80036;stroke-width:1.0;"/><text fill="#000000" font-family="sans-serif" font-size="13" lengthAdjust="spacing" textLength="142" x="366" y="471.8247">behavior not specified</text><polygon fill="#A80036" points="794,506.0234,784,510.0234,794,514.0234,790,510.0234" style="stroke:#A80036;stroke-width:1.0;"/><line style="stroke:#A80036;stroke-width:1.0;" x1="788" x2="1145" y1="510.0234" y2="510.0234"/><text fill="#000000" font-family="sans-serif" font-size="13" lengthAdjust="spacing" textLength="323" x="800" y="504.9575">send_Gate_in(order : Order, container : Container)</text><path d="M750,525.0234 L822,525.0234 L822,532.0234 L812,542.0234 L750,542.0234 L750,525.0234 " fill="#EEEEEE" style="stroke:#000000;stroke-width:1.0;"/><rect fill="none" height="56.2656" style="stroke:#000000;stroke-width:2.0;" width="723" x="750" y="525.0234"/><text fill="#000000" font-family="sans-serif" font-size="13" font-weight="bold" lengthAdjust="spacing" textLength="27" x="765" y="538.0903">opt</text><text fill="#000000" font-family="sans-serif" font-size="11" font-weight="bold" lengthAdjust="spacing" textLength="80" x="837" y="537.2339">[dangerous]</text><line style="stroke:#A80036;stroke-width:1.0;" x1="1284" x2="1274" y1="568.2891" y2="564.2891"/><line style="stroke:#A80036;stroke-width:1.0;" x1="1284" x2="1274" y1="568.2891" y2="572.2891"/><line style="stroke:#A80036;stroke-width:1.0;" x1="783" x2="1285" y1="568.2891" y2="568.2891"/><text fill="#000000" font-family="sans-serif" font-size="13" lengthAdjust="spacing" textLength="323" x="790" y="563.2231">send_Gate_in(order : Order, container : Container)</text><path d="M1291,547.1563 L1291,572.1563 L1454,572.1563 L1454,557.1563 L1444,547.1563 L1291,547.1563 " fill="#FFB6C1" filter="url(#fz72x0dlrb0pq)" style="stroke:#A80036;stroke-width:1.0;"/><path d="M1444,547.1563 L1444,557.1563 L1454,557.1563 L1444,547.1563 " fill="#FFB6C1" style="stroke:#A80036;stroke-width:1.0;"/><text fill="#000000" font-family="sans-serif" font-size="13" lengthAdjust="spacing" textLength="142" x="1297" y="564.2231">behavior not specified</text><polygon fill="#A80036" points="437,615.4219,427,619.4219,437,623.4219,433,619.4219" style="stroke:#A80036;stroke-width:1.0;"/><line style="stroke:#A80036;stroke-width:1.0;" x1="431" x2="782" y1="619.4219" y2="619.4219"/><text fill="#000000" font-family="sans-serif" font-size="13" lengthAdjust="spacing" textLength="224" x="443" y="614.356">present_to_customs(order : Order)</text><path d="M788,593.2891 L788,618.2891 L1037,618.2891 L1037,603.2891 L1027,593.2891 L788,593.2891 " fill="#FBFB77" filter="url(#fz72x0dlrb0pq)" style="stroke:#A80036;stroke-width:1.0;"/><path d="M1027,593.2891 L1027,603.2891 L1037,603.2891 L1027,593.2891 " fill="#FBFB77" style="stroke:#A80036;stroke-width:1.0;"/><text fill="#000000" font-family="sans-serif" font-size="13" lengthAdjust="spacing" textLength="228" x="794" y="610.356">assumption: all containers received</text><path d="M262,593.2891 L262,618.2891 L417,618.2891 L417,603.2891 L407,593.2891 L262,593.2891 " fill="#32CD32" filter="url(#fz72x0dlrb0pq)" style="stroke:#A80036;stroke-width:1.0;"/><path d="M407,593.2891 L407,603.2891 L417,603.2891 L407,593.2891 " fill="#32CD32" style="stroke:#A80036;stroke-width:1.0;"/><text fill="#000000" font-family="sans-serif" font-size="13" lengthAdjust="spacing" textLength="134" x="268" y="610.356">container: presented</text><path d="M276,634.4219 L348,634.4219 L348,641.4219 L338,651.4219 L276,651.4219 L276,634.4219 " fill="#EEEEEE" style="stroke:#000000;stroke-width:1.0;"/><rect fill="none" height="182.7969" style="stroke:#000000;stroke-width:2.0;" width="920.5" x="276" y="634.4219"/><text fill="#000000" font-family="sans-serif" font-size="13" font-weight="bold" lengthAdjust="spacing" textLength="27" x="291" y="647.4888">opt</text><text fill="#000000" font-family="sans-serif" font-size="11" font-weight="bold" lengthAdjust="spacing" textLength="152" x="363" y="646.6323">[inspection requested]</text><polygon fill="#A80036" points="771,673.6875,781,677.6875,771,681.6875,775,677.6875" style="stroke:#A80036;stroke-width:1.0;"/><line style="stroke:#A80036;stroke-width:1.0;" x1="426" x2="777" y1="677.6875" y2="677.6875"/><text fill="#000000" font-family="sans-serif" font-size="13" lengthAdjust="spacing" textLength="207" x="433" y="672.6216">requestInspection(order : Order)</text><path d="M286,656.5547 L286,681.5547 L417,681.5547 L417,666.5547 L407,656.5547 L286,656.5547 " fill="#32CD32" filter="url(#fz72x0dlrb0pq)" style="stroke:#A80036;stroke-width:1.0;"/><path d="M407,656.5547 L407,666.5547 L417,666.5547 L407,656.5547 " fill="#32CD32" style="stroke:#A80036;stroke-width:1.0;"/><text fill="#000000" font-family="sans-serif" font-size="13" lengthAdjust="spacing" textLength="110" x="292" y="673.6216">container: locked</text><line style="stroke:#A80036;stroke-width:1.0;" x1="532" x2="542" y1="716.8203" y2="712.8203"/><line style="stroke:#A80036;stroke-width:1.0;" x1="532" x2="542" y1="716.8203" y2="720.8203"/><line style="stroke:#A80036;stroke-width:1.0;" x1="532" x2="782" y1="716.8203" y2="716.8203"/><text fill="#000000" font-family="sans-serif" font-size="13" lengthAdjust="spacing" textLength="227" x="549" y="711.7544">inspectionRequested(order : Order)</text><path d="M360,695.6875 L360,720.6875 L523,720.6875 L523,705.6875 L513,695.6875 L360,695.6875 " fill="#FFB6C1" filter="url(#fz72x0dlrb0pq)" style="stroke:#A80036;stroke-width:1.0;"/><path d="M513,695.6875 L513,705.6875 L523,705.6875 L513,695.6875 " fill="#FFB6C1" style="stroke:#A80036;stroke-width:1.0;"/><text fill="#000000" font-family="sans-serif" font-size="13" lengthAdjust="spacing" textLength="142" x="366" y="712.7544">behavior not specified</text><polygon fill="#A80036" points="1134,746.9531,1144,750.9531,1134,754.9531,1138,750.9531" style="stroke:#A80036;stroke-width:1.0;"/><line style="stroke:#A80036;stroke-width:1.0;" x1="783" x2="1140" y1="750.9531" y2="750.9531"/><text fill="#000000" font-family="sans-serif" font-size="13" lengthAdjust="spacing" textLength="207" x="790" y="745.8872">requestInspection(order : Order)</text><polygon fill="#A80036" points="794,776.0859,784,780.0859,794,784.0859,790,780.0859" style="stroke:#A80036;stroke-width:1.0;"/><line style="stroke:#A80036;stroke-width:1.0;stroke-dasharray:2.0,2.0;" x1="788" x2="1145" y1="780.0859" y2="780.0859"/><text fill="#000000" font-family="sans-serif" font-size="13" lengthAdjust="spacing" textLength="105" x="800" y="775.02">inspectionResult</text><polygon fill="#A80036" points="437,805.2188,427,809.2188,437,813.2188,433,809.2188" style="stroke:#A80036;stroke-width:1.0;"/><line style="stroke:#A80036;stroke-width:1.0;stroke-dasharray:2.0,2.0;" x1="431" x2="782" y1="809.2188" y2="809.2188"/><text fill="#000000" font-family="sans-serif" font-size="13" lengthAdjust="spacing" textLength="105" x="443" y="804.1528">inspectionResult</text><polygon fill="#A80036" points="771,846.3516,781,850.3516,771,854.3516,775,850.3516" style="stroke:#A80036;stroke-width:1.0;"/><line style="stroke:#A80036;stroke-width:1.0;stroke-dasharray:2.0,2.0;" x1="426" x2="777" y1="850.3516" y2="850.3516"/><text fill="#000000" font-family="sans-serif" font-size="13" lengthAdjust="spacing" textLength="62" x="433" y="845.2856">clearance</text><path d="M280,829.2188 L280,854.2188 L417,854.2188 L417,839.2188 L407,829.2188 L280,829.2188 " fill="#32CD32" filter="url(#fz72x0dlrb0pq)" style="stroke:#A80036;stroke-width:1.0;"/><path d="M407,829.2188 L407,839.2188 L417,839.2188 L407,829.2188 " fill="#32CD32" style="stroke:#A80036;stroke-width:1.0;"/><text fill="#000000" font-family="sans-serif" font-size="13" lengthAdjust="spacing" textLength="116" x="286" y="846.2856">container: cleared</text><line style="stroke:#A80036;stroke-width:1.0;" x1="532" x2="542" y1="889.4844" y2="885.4844"/><line style="stroke:#A80036;stroke-width:1.0;" x1="532" x2="542" y1="889.4844" y2="893.4844"/><line style="stroke:#A80036;stroke-width:1.0;" x1="532" x2="782" y1="889.4844" y2="889.4844"/><text fill="#000000" font-family="sans-serif" font-size="13" lengthAdjust="spacing" textLength="193" x="549" y="884.4185">send_clearance(order : Order)</text><path d="M360,868.3516 L360,893.3516 L523,893.3516 L523,878.3516 L513,868.3516 L360,868.3516 " fill="#FFB6C1" filter="url(#fz72x0dlrb0pq)" style="stroke:#A80036;stroke-width:1.0;"/><path d="M513,868.3516 L513,878.3516 L523,878.3516 L513,868.3516 " fill="#FFB6C1" style="stroke:#A80036;stroke-width:1.0;"/><text fill="#000000" font-family="sans-serif" font-size="13" lengthAdjust="spacing" textLength="142" x="366" y="885.4185">behavior not specified</text><polygon fill="#A80036" points="1134,919.6172,1144,923.6172,1134,927.6172,1138,923.6172" style="stroke:#A80036;stroke-width:1.0;"/><line style="stroke:#A80036;stroke-width:1.0;stroke-dasharray:2.0,2.0;" x1="783" x2="1140" y1="923.6172" y2="923.6172"/><text fill="#000000" font-family="sans-serif" font-size="13" lengthAdjust="spacing" textLength="62" x="790" y="918.5513">clearance</text><line style="stroke:#A80036;stroke-width:1.0;" x1="532" x2="542" y1="962.75" y2="958.75"/><line style="stroke:#A80036;stroke-width:1.0;" x1="532" x2="542" y1="962.75" y2="966.75"/><line style="stroke:#A80036;stroke-width:1.0;" x1="532" x2="1145" y1="962.75" y2="962.75"/><text fill="#000000" font-family="sans-serif" font-size="13" lengthAdjust="spacing" textLength="339" x="549" y="957.6841">send_On_Vessel(order : order, container : Container)</text><path d="M360,936.6172 L360,961.6172 L523,961.6172 L523,946.6172 L513,936.6172 L360,936.6172 " fill="#FFB6C1" filter="url(#fz72x0dlrb0pq)" style="stroke:#A80036;stroke-width:1.0;"/><path d="M513,936.6172 L513,946.6172 L523,946.6172 L513,936.6172 " fill="#FFB6C1" style="stroke:#A80036;stroke-width:1.0;"/><text fill="#000000" font-family="sans-serif" font-size="13" lengthAdjust="spacing" textLength="142" x="366" y="953.6841">behavior not specified</text><path d="M1151,936.6172 L1151,961.6172 L1284,961.6172 L1284,946.6172 L1274,936.6172 L1151,936.6172 " fill="#32CD32" filter="url(#fz72x0dlrb0pq)" style="stroke:#A80036;stroke-width:1.0;"/><path d="M1274,936.6172 L1274,946.6172 L1284,946.6172 L1274,936.6172 " fill="#32CD32" style="stroke:#A80036;stroke-width:1.0;"/><text fill="#000000" font-family="sans-serif" font-size="13" lengthAdjust="spacing" textLength="112" x="1157" y="953.6841">container: loaded</text><polygon fill="#A80036" points="794,987.8828,784,991.8828,794,995.8828,790,991.8828" style="stroke:#A80036;stroke-width:1.0;"/><line style="stroke:#A80036;stroke-width:1.0;" x1="788" x2="1145" y1="991.8828" y2="991.8828"/><text fill="#000000" font-family="sans-serif" font-size="13" lengthAdjust="spacing" textLength="339" x="800" y="986.8169">send_On_Vessel(order : order, container : Container)</text><path d="M750,1006.8828 L822,1006.8828 L822,1013.8828 L812,1023.8828 L750,1023.8828 L750,1006.8828 " fill="#EEEEEE" style="stroke:#000000;stroke-width:1.0;"/><rect fill="none" height="56.2656" style="stroke:#000000;stroke-width:2.0;" width="723" x="750" y="1006.8828"/><text fill="#000000" font-family="sans-serif" font-size="13" font-weight="bold" lengthAdjust="spacing" textLength="27" x="765" y="1019.9497">opt</text><text fill="#000000" font-family="sans-serif" font-size="11" font-weight="bold" lengthAdjust="spacing" textLength="80" x="837" y="1019.0933">[dangerous]</text><line style="stroke:#A80036;stroke-width:1.0;" x1="1284" x2="1274" y1="1050.1484" y2="1046.1484"/><line style="stroke:#A80036;stroke-width:1.0;" x1="1284" x2="1274" y1="1050.1484" y2="1054.1484"/><line style="stroke:#A80036;stroke-width:1.0;" x1="783" x2="1285" y1="1050.1484" y2="1050.1484"/><text fill="#000000" font-family="sans-serif" font-size="13" lengthAdjust="spacing" textLength="341" x="790" y="1045.0825">send_On_Vessel(order : Order, container : Container)</text><path d="M1291,1029.0156 L1291,1054.0156 L1454,1054.0156 L1454,1039.0156 L1444,1029.0156 L1291,1029.0156 " fill="#FFB6C1" filter="url(#fz72x0dlrb0pq)" style="stroke:#A80036;stroke-width:1.0;"/><path d="M1444,1029.0156 L1444,1039.0156 L1454,1039.0156 L1444,1029.0156 " fill="#FFB6C1" style="stroke:#A80036;stroke-width:1.0;"/><text fill="#000000" font-family="sans-serif" font-size="13" lengthAdjust="spacing" textLength="142" x="1297" y="1046.0825">behavior not specified</text><polygon fill="#A80036" points="437,1087.2813,427,1091.2813,437,1095.2813,433,1091.2813" style="stroke:#A80036;stroke-width:1.0;"/><line style="stroke:#A80036;stroke-width:1.0;" x1="431" x2="782" y1="1091.2813" y2="1091.2813"/><text fill="#000000" font-family="sans-serif" font-size="13" lengthAdjust="spacing" textLength="195" x="443" y="1086.2153">send_all_loaded(order : Order)</text><polygon fill="#A80036" points="771,1121.4141,781,1125.4141,771,1129.4141,775,1125.4141" style="stroke:#A80036;stroke-width:1.0;"/><line style="stroke:#A80036;stroke-width:1.0;stroke-dasharray:2.0,2.0;" x1="426" x2="777" y1="1125.4141" y2="1125.4141"/><text fill="#000000" font-family="sans-serif" font-size="13" lengthAdjust="spacing" textLength="26" x="433" y="1120.3481">true</text><path d="M287,1104.2813 L287,1129.2813 L417,1129.2813 L417,1114.2813 L407,1104.2813 L287,1104.2813 " fill="#FBFB77" filter="url(#fz72x0dlrb0pq)" style="stroke:#A80036;stroke-width:1.0;"/><path d="M407,1104.2813 L407,1114.2813 L417,1114.2813 L407,1104.2813 " fill="#FBFB77" style="stroke:#A80036;stroke-width:1.0;"/><text fill="#000000" font-family="sans-serif" font-size="13" lengthAdjust="spacing" textLength="109" x="293" y="1121.3481">send_completion</text><polygon fill="#A80036" points="1134,1160.5469,1144,1164.5469,1134,1168.5469,1138,1164.5469" style="stroke:#A80036;stroke-width:1.0;"/><line style="stroke:#A80036;stroke-width:1.0;stroke-dasharray:2.0,2.0;" x1="783" x2="1140" y1="1164.5469" y2="1164.5469"/><text fill="#000000" font-family="sans-serif" font-size="13" lengthAdjust="spacing" textLength="26" x="790" y="1159.481">true</text><path d="M562,1143.4141 L562,1168.4141 L774,1168.4141 L774,1153.4141 L764,1143.4141 L562,1143.4141 " fill="#FBFB77" filter="url(#fz72x0dlrb0pq)" style="stroke:#A80036;stroke-width:1.0;"/><path d="M764,1143.4141 L764,1153.4141 L774,1153.4141 L764,1143.4141 " fill="#FBFB77" style="stroke:#A80036;stroke-width:1.0;"/><text fill="#000000" font-family="sans-serif" font-size="13" lengthAdjust="spacing" textLength="191" x="568" y="1160.481">not part of sequence diagram</text><polygon fill="#A80036" points="219,1199.6797,209,1203.6797,219,1207.6797,215,1203.6797" style="stroke:#A80036;stroke-width:1.0;"/><line style="stroke:#A80036;stroke-width:1.0;stroke-dasharray:2.0,2.0;" x1="213" x2="1145" y1="1203.6797" y2="1203.6797"/><text fill="#000000" font-family="sans-serif" font-size="13" lengthAdjust="spacing" textLength="26" x="225" y="1198.6138">true</text><path d="M1151,1182.5469 L1151,1207.5469 L1281,1207.5469 L1281,1192.5469 L1271,1182.5469 L1151,1182.5469 " fill="#FBFB77" filter="url(#fz72x0dlrb0pq)" style="stroke:#A80036;stroke-width:1.0;"/><path d="M1271,1182.5469 L1271,1192.5469 L1281,1192.5469 L1271,1182.5469 " fill="#FBFB77" style="stroke:#A80036;stroke-width:1.0;"/><text fill="#000000" font-family="sans-serif" font-size="13" lengthAdjust="spacing" textLength="109" x="1157" y="1199.6138">send_completion</text><!--MD5=[7f32cc3e8e6c325ade6c60792bd87ee3]
@startuml
' !theme plain

->> Exporter : receiveOrder(goods : Item[])
Exporter -> Customs : declare_goods(goods : Item[])
Customs - -> Exporter : mrn
note right: send_MRN
Exporter -> ShippingLine : send_transport_order(mrn, goods : Item[])
note right #LimeGreen: container: created
ShippingLine -> PCS : send_port_order(order : Order)
note left: Order is PortOrder
PCS ->> Terminal : send_port_order(order : Order)
Terminal -> Terminal : store(order : Order)
opt dangerous
  PCS ->> PortAuthority : send_port_order(order : Order)
  note right #LightPink: behavior not specified
end
PCS - -> ShippingLine : portOrderNumber
ShippingLine - -> Exporter

Exporter -> Terminal: deliver(container : Container)
note right #LimeGreen: container: delivered
Terminal ->> ShippingLine : send_Gate_in(order : Order, container : Container)
note left #LightPink: behavior not specified
Terminal -> PCS : send_Gate_in(order : Order, container : Container)
opt dangerous
  PCS ->> PortAuthority : send_Gate_in(order : Order, container : Container)
  note right #LightPink: behavior not specified
end
PCS -> Customs : present_to_customs(order : Order)
note right: assumption: all containers received
note left #LimeGreen: container: presented
opt inspection requested
  Customs -> PCS : requestInspection(order : Order)
  note left #LimeGreen: container: locked
  PCS ->> ShippingLine : inspectionRequested(order : Order)
  note left #LightPink: behavior not specified
  PCS -> Terminal : requestInspection(order : Order)
  Terminal - -> PCS : inspectionResult
  PCS - -> Customs : inspectionResult
end
' Customs -> PCS : send_clearance(order : Order)
Customs - -> PCS : clearance
note left #LimeGreen: container: cleared
PCS ->> ShippingLine : send_clearance(order : Order)
note left #LightPink: behavior not specified
' PCS -> Terminal : send_clearance(order : Order)
PCS - -> Terminal : clearance

Terminal ->> ShippingLine : send_On_Vessel(order : order, container : Container)
note left #LightPink: behavior not specified
note right #LimeGreen: container: loaded
Terminal -> PCS : send_On_Vessel(order : order, container : Container)
opt dangerous
  PCS ->> PortAuthority : send_On_Vessel(order : Order, container : Container)
  note right #LightPink: behavior not specified
end
PCS -> Customs : send_all_loaded(order : Order)
Customs - -> PCS : true
note left: send_completion
PCS - -> Terminal : true
note left: not part of sequence diagram
Terminal - -> Exporter : true
note right: send_completion
@enduml

@startuml

->> Exporter : receiveOrder(goods : Item[])
Exporter -> Customs : declare_goods(goods : Item[])
Customs - -> Exporter : mrn
note right: send_MRN
Exporter -> ShippingLine : send_transport_order(mrn, goods : Item[])
note right #LimeGreen: container: created
ShippingLine -> PCS : send_port_order(order : Order)
note left: Order is PortOrder
PCS ->> Terminal : send_port_order(order : Order)
Terminal -> Terminal : store(order : Order)
opt dangerous
  PCS ->> PortAuthority : send_port_order(order : Order)
  note right #LightPink: behavior not specified
end
PCS - -> ShippingLine : portOrderNumber
ShippingLine - -> Exporter

Exporter -> Terminal: deliver(container : Container)
note right #LimeGreen: container: delivered
Terminal ->> ShippingLine : send_Gate_in(order : Order, container : Container)
note left #LightPink: behavior not specified
Terminal -> PCS : send_Gate_in(order : Order, container : Container)
opt dangerous
  PCS ->> PortAuthority : send_Gate_in(order : Order, container : Container)
  note right #LightPink: behavior not specified
end
PCS -> Customs : present_to_customs(order : Order)
note right: assumption: all containers received
note left #LimeGreen: container: presented
opt inspection requested
  Customs -> PCS : requestInspection(order : Order)
  note left #LimeGreen: container: locked
  PCS ->> ShippingLine : inspectionRequested(order : Order)
  note left #LightPink: behavior not specified
  PCS -> Terminal : requestInspection(order : Order)
  Terminal - -> PCS : inspectionResult
  PCS - -> Customs : inspectionResult
end
Customs - -> PCS : clearance
note left #LimeGreen: container: cleared
PCS ->> ShippingLine : send_clearance(order : Order)
note left #LightPink: behavior not specified
PCS - -> Terminal : clearance

Terminal ->> ShippingLine : send_On_Vessel(order : order, container : Container)
note left #LightPink: behavior not specified
note right #LimeGreen: container: loaded
Terminal -> PCS : send_On_Vessel(order : order, container : Container)
opt dangerous
  PCS ->> PortAuthority : send_On_Vessel(order : Order, container : Container)
  note right #LightPink: behavior not specified
end
PCS -> Customs : send_all_loaded(order : Order)
Customs - -> PCS : true
note left: send_completion
PCS - -> Terminal : true
note left: not part of sequence diagram
Terminal - -> Exporter : true
note right: send_completion
@enduml

PlantUML version 1.2021.16beta3(Unknown compile time)
(GPL source distribution)
Java Runtime: Java(TM) SE Runtime Environment
JVM: Java HotSpot(TM) 64-Bit Server VM
Default Encoding: UTF-8
Language: en
Country: US
--></g></svg>